<?xml version="1.0" encoding="UTF-8"?>
<svg id="Dimensions" xmlns="http://www.w3.org/2000/svg" version="1.1" xmlns:xlink="http://www.w3.org/1999/xlink" viewBox="0 0 2040 2040">
  <!-- Generator: Adobe Illustrator 29.8.4, SVG Export Plug-In . SVG Version: 2.1.1 Build 6)  -->
  <defs>
    <style>
      .st0 {
        fill: url(#Cog_2);
        opacity: .5;
      }

      .st1 {
        fill: none;
      }

      .st2 {
        fill: #bfbfbf;
      }

      .st3 {
        fill: #ccc;
      }
    </style>
    <pattern id="Cog_2" data-name="Cog 2" x="0" y="0" width="2115.6682973" height="2115.6682973" patternTransform="translate(238.0871424 -518.6957956) scale(.9090909)" patternUnits="userSpaceOnUse" viewBox="0 0 2115.6682973 2115.6682973">
      <g>
        <rect class="st1" width="2115.6682973" height="2115.6682973"/>
        <g>
          <path class="st2" d="M2160.0284089,1975.5991617c-39.4870829,94.6064946-148.1914008,139.2895948-242.7978954,99.8025119-94.6064946-39.4870829-139.2896113-148.1913941-99.8025284-242.7978887,39.4870829-94.6064946,148.1914057-139.2896064,242.7979003-99.8025235s139.2896064,148.1914057,99.8025235,242.7979003ZM2095.3149955,1948.5889239c24.5697421-58.8662672-3.2330924-126.5045118-62.099348-151.0742491-58.8662556-24.5697372-126.504507,3.2330808-151.0742491,62.099348s3.2330973,126.5045002,62.0993528,151.0742374c58.8662556,24.5697372,126.5045021-3.2330692,151.0742442-62.0993364Z"/>
          <g id="Inner">
            <path class="st2" d="M1978.181175,1982.5751144c-43.3397921-5.8249554-73.7515765-45.6808791-67.926621-89.0206711,5.8249554-43.3397921,45.6808558-73.7515862,89.0206595-67.9266259,43.3398037,5.8249603,73.751593,45.6808723,67.9266375,89.0206644-5.8249603,43.3398037-45.6808839,73.7515881-89.020676,67.9266327ZM2017.3383799,1907.9467437c2.1236884-15.8009764-8.9639512-30.3317766-24.7649044-32.4554553-15.8009764-2.1236884-30.331767,8.963928-32.4554553,24.7649044-2.1236884,15.8009764,8.9639512,30.3317766,24.7649044,32.4554553,15.8009764,2.1236884,30.3317766-8.9639512,32.4554553-24.7649044Z"/>
          </g>
          <g id="Teeth">
            <polygon class="st2" points="2088.8068413 1776.7710095 2008.8667424 1743.4054216 2038.9270338 1692.8027975 2072.6693546 1702.9881449 2103.6404472 1719.8130353 2088.8068413 1776.7710095"/>
            <polygon class="st2" points="2088.8068413 1776.7710095 2008.8667424 1743.4054216 2038.9270338 1692.8027975 2072.6693546 1702.9881449 2103.6404472 1719.8130353 2088.8068413 1776.7710095"/>
            <polygon class="st2" points="1888.6495576 2031.4319256 1968.5896565 2064.7975135 1938.529365 2115.4001375 1904.7870442 2105.2147902 1873.8159517 2088.3898997 1888.6495576 2031.4319256"/>
            <polygon class="st2" points="1861.3977414 1804.0228257 1828.0321534 1883.9629246 1777.4295294 1853.9026332 1787.6148768 1820.1603123 1804.4397672 1789.1892198 1861.3977414 1804.0228257"/>
            <polygon class="st2" points="2007.9981435 2064.9039842 2088.117363 2031.9708316 2102.6429857 2089.0081261 2071.5814336 2105.6654218 2037.7845699 2115.6682973 2007.9981435 2064.9039842"/>
            <polygon class="st2" points="1827.9256828 1923.3714116 1860.8588353 2003.4906311 1803.8215408 2018.0162538 1787.1642451 1986.9547017 1777.1613697 1953.157838 1827.9256828 1923.3714116"/>
            <polygon class="st2" points="1969.4582554 1743.2989509 1889.3390359 1776.2321034 1874.8134132 1719.1948089 1905.8749652 1702.5375132 1939.671829 1692.5346378 1969.4582554 1743.2989509"/>
          </g>
        </g>
        <g>
          <path class="st2" d="M1736.8947494,1975.5991617c-39.4870829,94.6064946-148.1914008,139.2895948-242.7978954,99.8025119-94.6064946-39.4870829-139.2896113-148.1913941-99.8025284-242.7978887,39.4870829-94.6064946,148.1914057-139.2896064,242.7979003-99.8025235s139.2896064,148.1914057,99.8025235,242.7979003ZM1672.1813361,1948.5889239c24.5697421-58.8662672-3.2330924-126.5045118-62.099348-151.0742491-58.8662556-24.5697372-126.504507,3.2330808-151.0742491,62.099348s3.2330973,126.5045002,62.0993528,151.0742374c58.8662556,24.5697372,126.5045021-3.2330692,151.0742442-62.0993364Z"/>
          <g id="Inner1" data-name="Inner">
            <path class="st2" d="M1555.0475156,1982.5751144c-43.3397921-5.8249554-73.7515765-45.6808791-67.926621-89.0206711,5.8249554-43.3397921,45.6808558-73.7515862,89.0206595-67.9266259,43.3398037,5.8249603,73.751593,45.6808723,67.9266375,89.0206644-5.8249603,43.3398037-45.6808839,73.7515881-89.020676,67.9266327ZM1594.2047205,1907.9467437c2.1236884-15.8009764-8.9639512-30.3317766-24.7649044-32.4554553-15.8009764-2.1236884-30.331767,8.963928-32.4554553,24.7649044-2.1236884,15.8009764,8.9639512,30.3317766,24.7649044,32.4554553,15.8009764,2.1236884,30.3317766-8.9639512,32.4554553-24.7649044Z"/>
          </g>
          <g id="Teeth1" data-name="Teeth">
            <polygon class="st2" points="1665.6731818 1776.7710095 1585.7330829 1743.4054216 1615.7933743 1692.8027975 1649.5356952 1702.9881449 1680.5067877 1719.8130353 1665.6731818 1776.7710095"/>
            <polygon class="st2" points="1665.6731818 1776.7710095 1585.7330829 1743.4054216 1615.7933743 1692.8027975 1649.5356952 1702.9881449 1680.5067877 1719.8130353 1665.6731818 1776.7710095"/>
            <polygon class="st2" points="1692.924998 2004.1801094 1726.2905859 1924.2400105 1776.89321 1954.3003019 1766.7078626 1988.0426227 1749.8829722 2019.0137153 1692.924998 2004.1801094"/>
            <polygon class="st2" points="1465.5158981 2031.4319256 1545.455997 2064.7975135 1515.3957056 2115.4001375 1481.6533848 2105.2147902 1450.6822922 2088.3898997 1465.5158981 2031.4319256"/>
            <polygon class="st2" points="1438.2640819 1804.0228257 1404.898494 1883.9629246 1354.29587 1853.9026332 1364.4812173 1820.1603123 1381.3061078 1789.1892198 1438.2640819 1804.0228257"/>
            <polygon class="st2" points="1726.3970566 1884.8315235 1693.4639041 1804.712304 1750.5011986 1790.1866813 1767.1584943 1821.2482333 1777.1613697 1855.0450971 1726.3970566 1884.8315235"/>
            <polygon class="st2" points="1584.864484 2064.9039842 1664.9837035 2031.9708316 1679.5093262 2089.0081261 1648.4477742 2105.6654218 1614.6509104 2115.6682973 1584.864484 2064.9039842"/>
            <polygon class="st2" points="1404.7920233 1923.3714116 1437.7251759 2003.4906311 1380.6878814 2018.0162538 1364.0305857 1986.9547017 1354.0277102 1953.157838 1404.7920233 1923.3714116"/>
            <polygon class="st2" points="1546.3245959 1743.2989509 1466.2053764 1776.2321034 1451.6797537 1719.1948089 1482.7413058 1702.5375132 1516.5381695 1692.5346378 1546.3245959 1743.2989509"/>
          </g>
        </g>
        <g>
          <path class="st2" d="M1313.76109,1975.5991617c-39.4870829,94.6064946-148.1914008,139.2895948-242.7978954,99.8025119-94.6064946-39.4870829-139.2896113-148.1913941-99.8025284-242.7978887,39.4870829-94.6064946,148.1914057-139.2896064,242.7979003-99.8025235s139.2896064,148.1914057,99.8025235,242.7979003ZM1249.0476766,1948.5889239c24.5697421-58.8662672-3.2330924-126.5045118-62.099348-151.0742491-58.8662556-24.5697372-126.504507,3.2330808-151.0742491,62.099348-24.5697421,58.8662672,3.2330973,126.5045002,62.0993528,151.0742374,58.8662556,24.5697372,126.5045021-3.2330692,151.0742442-62.0993364Z"/>
          <g id="Inner2" data-name="Inner">
            <path class="st2" d="M1131.9138561,1982.5751144c-43.3397921-5.8249554-73.7515765-45.6808791-67.926621-89.0206711,5.8249554-43.3397921,45.6808558-73.7515862,89.0206595-67.9266259,43.3398037,5.8249603,73.751593,45.6808723,67.9266375,89.0206644-5.8249603,43.3398037-45.6808839,73.7515881-89.020676,67.9266327ZM1171.071061,1907.9467437c2.1236884-15.8009764-8.9639512-30.3317766-24.7649044-32.4554553-15.8009764-2.1236884-30.331767,8.963928-32.4554553,24.7649044-2.1236884,15.8009764,8.9639512,30.3317766,24.7649044,32.4554553,15.8009764,2.1236884,30.3317766-8.9639512,32.4554553-24.7649044Z"/>
          </g>
          <g id="Teeth2" data-name="Teeth">
            <polygon class="st2" points="1242.5395224 1776.7710095 1162.5994235 1743.4054216 1192.6597149 1692.8027975 1226.4020357 1702.9881449 1257.3731283 1719.8130353 1242.5395224 1776.7710095"/>
            <polygon class="st2" points="1242.5395224 1776.7710095 1162.5994235 1743.4054216 1192.6597149 1692.8027975 1226.4020357 1702.9881449 1257.3731283 1719.8130353 1242.5395224 1776.7710095"/>
            <polygon class="st2" points="1269.7913386 2004.1801094 1303.1569265 1924.2400105 1353.7595505 1954.3003019 1343.5742032 1988.0426227 1326.7493127 2019.0137153 1269.7913386 2004.1801094"/>
            <polygon class="st2" points="1042.3822387 2031.4319256 1122.3223376 2064.7975135 1092.2620461 2115.4001375 1058.5197253 2105.2147902 1027.5486328 2088.3898997 1042.3822387 2031.4319256"/>
            <polygon class="st2" points="1015.1304225 1804.0228257 981.7648345 1883.9629246 931.1622105 1853.9026332 941.3475579 1820.1603123 958.1724483 1789.1892198 1015.1304225 1804.0228257"/>
            <polygon class="st2" points="1303.2633972 1884.8315235 1270.3302446 1804.712304 1327.3675391 1790.1866813 1344.0248348 1821.2482333 1354.0277102 1855.0450971 1303.2633972 1884.8315235"/>
            <polygon class="st2" points="1161.7308246 2064.9039842 1241.8500441 2031.9708316 1256.3756667 2089.0081261 1225.3141147 2105.6654218 1191.517251 2115.6682973 1161.7308246 2064.9039842"/>
            <polygon class="st2" points="981.6583639 1923.3714116 1014.5915164 2003.4906311 957.5542219 2018.0162538 940.8969262 1986.9547017 930.8940508 1953.157838 981.6583639 1923.3714116"/>
            <polygon class="st2" points="1123.1909365 1743.2989509 1043.071717 1776.2321034 1028.5460943 1719.1948089 1059.6076463 1702.5375132 1093.4045101 1692.5346378 1123.1909365 1743.2989509"/>
          </g>
        </g>
        <g>
          <path class="st2" d="M890.6274305,1975.5991617c-39.4870829,94.6064946-148.1914008,139.2895948-242.7978954,99.8025119-94.6064946-39.4870829-139.2896113-148.1913941-99.8025284-242.7978887,39.4870829-94.6064946,148.1914057-139.2896064,242.7979003-99.8025235s139.2896064,148.1914057,99.8025235,242.7979003ZM825.9140172,1948.5889239c24.5697421-58.8662672-3.2330924-126.5045118-62.099348-151.0742491-58.8662556-24.5697372-126.504507,3.2330808-151.0742491,62.099348-24.5697421,58.8662672,3.2330973,126.5045002,62.0993528,151.0742374,58.8662556,24.5697372,126.5045021-3.2330692,151.0742442-62.0993364Z"/>
          <g id="Inner3" data-name="Inner">
            <path class="st2" d="M708.7801966,1982.5751144c-43.3397921-5.8249554-73.7515765-45.6808791-67.926621-89.0206711,5.8249554-43.3397921,45.6808558-73.7515862,89.0206595-67.9266259,43.3398037,5.8249603,73.751593,45.6808723,67.9266375,89.0206644-5.8249603,43.3398037-45.6808839,73.7515881-89.020676,67.9266327ZM747.9374016,1907.9467437c2.1236884-15.8009764-8.9639512-30.3317766-24.7649044-32.4554553-15.8009764-2.1236884-30.331767,8.963928-32.4554553,24.7649044-2.1236884,15.8009764,8.9639512,30.3317766,24.7649044,32.4554553,15.8009764,2.1236884,30.3317766-8.9639512,32.4554553-24.7649044Z"/>
          </g>
          <g id="Teeth3" data-name="Teeth">
            <polygon class="st2" points="819.4058629 1776.7710095 739.465764 1743.4054216 769.5260554 1692.8027975 803.2683763 1702.9881449 834.2394688 1719.8130353 819.4058629 1776.7710095"/>
            <polygon class="st2" points="819.4058629 1776.7710095 739.465764 1743.4054216 769.5260554 1692.8027975 803.2683763 1702.9881449 834.2394688 1719.8130353 819.4058629 1776.7710095"/>
            <polygon class="st2" points="846.6576791 2004.1801094 880.023267 1924.2400105 930.6258911 1954.3003019 920.4405437 1988.0426227 903.6156533 2019.0137153 846.6576791 2004.1801094"/>
            <polygon class="st2" points="619.2485792 2031.4319256 699.1886781 2064.7975135 669.1283867 2115.4001375 635.3860659 2105.2147902 604.4149733 2088.3898997 619.2485792 2031.4319256"/>
            <polygon class="st2" points="591.996763 1804.0228257 558.6311751 1883.9629246 508.0285511 1853.9026332 518.2138984 1820.1603123 535.0387889 1789.1892198 591.996763 1804.0228257"/>
            <polygon class="st2" points="880.1297377 1884.8315235 847.1965852 1804.712304 904.2338797 1790.1866813 920.8911753 1821.2482333 930.8940508 1855.0450971 880.1297377 1884.8315235"/>
            <polygon class="st2" points="738.5971651 2064.9039842 818.7163846 2031.9708316 833.2420073 2089.0081261 802.1804553 2105.6654218 768.3835915 2115.6682973 738.5971651 2064.9039842"/>
            <polygon class="st2" points="558.5247044 1923.3714116 591.457857 2003.4906311 534.4205624 2018.0162538 517.7632668 1986.9547017 507.7603913 1953.157838 558.5247044 1923.3714116"/>
            <polygon class="st2" points="700.057277 1743.2989509 619.9380575 1776.2321034 605.4124348 1719.1948089 636.4739869 1702.5375132 670.2708506 1692.5346378 700.057277 1743.2989509"/>
          </g>
        </g>
        <g>
          <path class="st2" d="M467.4937711,1975.5991617c-39.4870829,94.6064946-148.1914008,139.2895948-242.7978954,99.8025119-94.6064946-39.4870829-139.2896113-148.1913941-99.8025284-242.7978887,39.4870829-94.6064946,148.1914057-139.2896064,242.7979003-99.8025235s139.2896064,148.1914057,99.8025235,242.7979003ZM402.7803577,1948.5889239c24.5697421-58.8662672-3.2330924-126.5045118-62.099348-151.0742491-58.8662556-24.5697372-126.504507,3.2330808-151.0742491,62.099348-24.5697421,58.8662672,3.2330973,126.5045002,62.0993528,151.0742374,58.8662556,24.5697372,126.5045021-3.2330692,151.0742442-62.0993364Z"/>
          <g id="Inner4" data-name="Inner">
            <path class="st2" d="M285.6465372,1982.5751144c-43.3397921-5.8249554-73.7515765-45.6808791-67.926621-89.0206711,5.8249554-43.3397921,45.6808558-73.7515862,89.0206595-67.9266259,43.3398037,5.8249603,73.751593,45.6808723,67.9266375,89.0206644-5.8249603,43.3398037-45.6808839,73.7515881-89.020676,67.9266327ZM324.8037421,1907.9467437c2.1236884-15.8009764-8.9639512-30.3317766-24.7649044-32.4554553-15.8009764-2.1236884-30.331767,8.963928-32.4554553,24.7649044-2.1236884,15.8009764,8.9639512,30.3317766,24.7649044,32.4554553,15.8009764,2.1236884,30.3317766-8.9639512,32.4554553-24.7649044Z"/>
          </g>
          <g id="Teeth4" data-name="Teeth">
            <polygon class="st2" points="396.2722035 1776.7710095 316.3321046 1743.4054216 346.392396 1692.8027975 380.1347168 1702.9881449 411.1058094 1719.8130353 396.2722035 1776.7710095"/>
            <polygon class="st2" points="396.2722035 1776.7710095 316.3321046 1743.4054216 346.392396 1692.8027975 380.1347168 1702.9881449 411.1058094 1719.8130353 396.2722035 1776.7710095"/>
            <polygon class="st2" points="423.5240197 2004.1801094 456.8896076 1924.2400105 507.4922316 1954.3003019 497.3068843 1988.0426227 480.4819938 2019.0137153 423.5240197 2004.1801094"/>
            <polygon class="st2" points="196.1149198 2031.4319256 276.0550187 2064.7975135 245.9947272 2115.4001375 212.2524064 2105.2147902 181.2813139 2088.3898997 196.1149198 2031.4319256"/>
            <polygon class="st2" points="168.8631036 1804.0228257 135.4975156 1883.9629246 84.8948916 1853.9026332 95.080239 1820.1603123 111.9051294 1789.1892198 168.8631036 1804.0228257"/>
            <polygon class="st2" points="456.9960783 1884.8315235 424.0629257 1804.712304 481.1002202 1790.1866813 497.7575159 1821.2482333 507.7603913 1855.0450971 456.9960783 1884.8315235"/>
            <polygon class="st2" points="315.4635057 2064.9039842 395.5827251 2031.9708316 410.1083478 2089.0081261 379.0467958 2105.6654218 345.2499321 2115.6682973 315.4635057 2064.9039842"/>
            <polygon class="st2" points="135.391045 1923.3714116 168.3241975 2003.4906311 111.286903 2018.0162538 94.6296073 1986.9547017 84.6267319 1953.157838 135.391045 1923.3714116"/>
            <polygon class="st2" points="276.9236176 1743.2989509 196.8043981 1776.2321034 182.2787754 1719.1948089 213.3403274 1702.5375132 247.1371912 1692.5346378 276.9236176 1743.2989509"/>
          </g>
        </g>
        <g>
          <path class="st2" d="M44.3601116,1975.5991617c-39.4870829,94.6064946-148.1914008,139.2895948-242.7978954,99.8025119-94.6064946-39.4870829-139.2896113-148.1913941-99.8025284-242.7978887,39.4870829-94.6064946,148.1914057-139.2896064,242.7979003-99.8025235s139.2896064,148.1914057,99.8025235,242.7979003ZM-20.3533017,1948.5889239c24.5697421-58.8662672-3.2330924-126.5045118-62.099348-151.0742491-58.8662556-24.5697372-126.504507,3.2330808-151.0742491,62.099348-24.5697421,58.8662672,3.2330973,126.5045002,62.0993528,151.0742374,58.8662556,24.5697372,126.5045021-3.2330692,151.0742442-62.0993364Z"/>
          <g id="Teeth5" data-name="Teeth">
            <polygon class="st2" points=".3903602 2004.1801094 33.7559481 1924.2400105 84.3585722 1954.3003019 74.1732248 1988.0426227 57.3483344 2019.0137153 .3903602 2004.1801094"/>
            <polygon class="st2" points="33.8624188 1884.8315235 .9292663 1804.712304 57.9665608 1790.1866813 74.6238564 1821.2482333 84.6267319 1855.0450971 33.8624188 1884.8315235"/>
          </g>
        </g>
        <g>
          <path class="st2" d="M2329.2818727,1552.4655023c-39.4870829,94.6064946-148.1914008,139.2895948-242.7978954,99.8025119-94.6064946-39.4870829-139.2896113-148.1913941-99.8025284-242.7978887,39.4870829-94.6064946,148.1914057-139.2896064,242.7979003-99.8025235s139.2896064,148.1914057,99.8025235,242.7979003ZM2264.5684593,1525.4552644c24.5697421-58.8662672-3.2330924-126.5045118-62.099348-151.0742491-58.8662556-24.5697372-126.504507,3.2330808-151.0742491,62.099348s3.2330973,126.5045002,62.0993528,151.0742374c58.8662556,24.5697372,126.5045021-3.2330692,151.0742442-62.0993364Z"/>
          <g id="Inner5" data-name="Inner">
            <path class="st2" d="M2147.4346388,1559.4414549c-43.3397921-5.8249554-73.7515765-45.6808791-67.926621-89.0206711,5.8249554-43.3397921,45.6808558-73.7515862,89.0206595-67.9266259,43.3398037,5.8249603,73.751593,45.6808723,67.9266375,89.0206644-5.8249603,43.3398037-45.6808839,73.7515881-89.020676,67.9266327ZM2186.5918437,1484.8130843c2.1236884-15.8009764-8.9639512-30.3317766-24.7649044-32.4554553-15.8009764-2.1236884-30.331767,8.963928-32.4554553,24.7649044-2.1236884,15.8009764,8.9639512,30.3317766,24.7649044,32.4554553,15.8009764,2.1236884,30.3317766-8.9639512,32.4554553-24.7649044Z"/>
          </g>
          <g id="Teeth6" data-name="Teeth">
            <polygon class="st2" points="2057.9030214 1608.2982661 2137.8431202 1641.663854 2107.7828288 1692.2664781 2074.040508 1682.0811307 2043.0694154 1665.2562403 2057.9030214 1608.2982661"/>
            <polygon class="st2" points="2030.6512051 1380.8891662 1997.2856172 1460.8292651 1946.6829932 1430.7689737 1956.8683405 1397.0266529 1973.693231 1366.0555603 2030.6512051 1380.8891662"/>
            <polygon class="st2" points="1997.1791466 1500.2377521 2030.1122991 1580.3569716 1973.0750046 1594.8825943 1956.4177089 1563.8210423 1946.4148335 1530.0241785 1997.1791466 1500.2377521"/>
            <polygon class="st2" points="2138.7117191 1320.1652914 2058.5924997 1353.098444 2044.066877 1296.0611495 2075.128429 1279.4038538 2108.9252927 1269.4009784 2138.7117191 1320.1652914"/>
          </g>
        </g>
        <g>
          <path class="st2" d="M1906.1482132,1552.4655023c-39.4870829,94.6064946-148.1914008,139.2895948-242.7978954,99.8025119-94.6064946-39.4870829-139.2896113-148.1913941-99.8025284-242.7978887,39.4870829-94.6064946,148.1914057-139.2896064,242.7979003-99.8025235s139.2896064,148.1914057,99.8025235,242.7979003ZM1841.4347998,1525.4552644c24.5697421-58.8662672-3.2330924-126.5045118-62.099348-151.0742491-58.8662556-24.5697372-126.504507,3.2330808-151.0742491,62.099348s3.2330973,126.5045002,62.0993528,151.0742374c58.8662556,24.5697372,126.5045021-3.2330692,151.0742442-62.0993364Z"/>
          <g id="Inner6" data-name="Inner">
            <path class="st2" d="M1724.3009793,1559.4414549c-43.3397921-5.8249554-73.7515765-45.6808791-67.926621-89.0206711,5.8249554-43.3397921,45.6808558-73.7515862,89.0206595-67.9266259,43.3398037,5.8249603,73.751593,45.6808723,67.9266375,89.0206644-5.8249603,43.3398037-45.6808839,73.7515881-89.020676,67.9266327ZM1763.4581842,1484.8130843c2.1236884-15.8009764-8.9639512-30.3317766-24.7649044-32.4554553-15.8009764-2.1236884-30.331767,8.963928-32.4554553,24.7649044-2.1236884,15.8009764,8.9639512,30.3317766,24.7649044,32.4554553,15.8009764,2.1236884,30.3317766-8.9639512,32.4554553-24.7649044Z"/>
          </g>
          <g id="Teeth7" data-name="Teeth">
            <polygon class="st2" points="1834.9266456 1353.63735 1754.9865467 1320.2717621 1785.0468381 1269.6691381 1818.7891589 1279.8544854 1849.7602515 1296.6793759 1834.9266456 1353.63735"/>
            <polygon class="st2" points="1834.9266456 1353.63735 1754.9865467 1320.2717621 1785.0468381 1269.6691381 1818.7891589 1279.8544854 1849.7602515 1296.6793759 1834.9266456 1353.63735"/>
            <polygon class="st2" points="1862.1784618 1581.0464499 1895.5440497 1501.106351 1946.1466738 1531.1666425 1935.9613264 1564.9089633 1919.1364359 1595.8800558 1862.1784618 1581.0464499"/>
            <polygon class="st2" points="1634.7693619 1608.2982661 1714.7094608 1641.663854 1684.6491694 1692.2664781 1650.9068486 1682.0811307 1619.935756 1665.2562403 1634.7693619 1608.2982661"/>
            <polygon class="st2" points="1607.5175457 1380.8891662 1574.1519578 1460.8292651 1523.5493337 1430.7689737 1533.7346811 1397.0266529 1550.5595716 1366.0555603 1607.5175457 1380.8891662"/>
            <polygon class="st2" points="1895.6505204 1461.697864 1862.7173678 1381.5786445 1919.7546624 1367.0530218 1936.411958 1398.1145739 1946.4148335 1431.9114376 1895.6505204 1461.697864"/>
            <polygon class="st2" points="1754.1179478 1641.7703247 1834.2371673 1608.8371722 1848.76279 1665.8744667 1817.7012379 1682.5317624 1783.9043742 1692.5346378 1754.1179478 1641.7703247"/>
            <polygon class="st2" points="1574.0454871 1500.2377521 1606.9786397 1580.3569716 1549.9413451 1594.8825943 1533.2840495 1563.8210423 1523.281174 1530.0241785 1574.0454871 1500.2377521"/>
            <polygon class="st2" points="1715.5780597 1320.1652914 1635.4588402 1353.098444 1620.9332175 1296.0611495 1651.9947696 1279.4038538 1685.7916333 1269.4009784 1715.5780597 1320.1652914"/>
          </g>
        </g>
        <g>
          <path class="st2" d="M1483.0145538,1552.4655023c-39.4870829,94.6064946-148.1914008,139.2895948-242.7978954,99.8025119-94.6064946-39.4870829-139.2896113-148.1913941-99.8025284-242.7978887,39.4870829-94.6064946,148.1914057-139.2896064,242.7979003-99.8025235s139.2896064,148.1914057,99.8025235,242.7979003ZM1418.3011404,1525.4552644c24.5697421-58.8662672-3.2330924-126.5045118-62.099348-151.0742491-58.8662556-24.5697372-126.504507,3.2330808-151.0742491,62.099348s3.2330973,126.5045002,62.0993528,151.0742374c58.8662556,24.5697372,126.5045021-3.2330692,151.0742442-62.0993364Z"/>
          <g id="Inner7" data-name="Inner">
            <path class="st2" d="M1301.1673199,1559.4414549c-43.3397921-5.8249554-73.7515765-45.6808791-67.926621-89.0206711,5.8249554-43.3397921,45.6808558-73.7515862,89.0206595-67.9266259,43.3398037,5.8249603,73.751593,45.6808723,67.9266375,89.0206644-5.8249603,43.3398037-45.6808839,73.7515881-89.020676,67.9266327ZM1340.3245248,1484.8130843c2.1236884-15.8009764-8.9639512-30.3317766-24.7649044-32.4554553-15.8009764-2.1236884-30.331767,8.963928-32.4554553,24.7649044-2.1236884,15.8009764,8.9639512,30.3317766,24.7649044,32.4554553,15.8009764,2.1236884,30.3317766-8.9639512,32.4554553-24.7649044Z"/>
          </g>
          <g id="Teeth8" data-name="Teeth">
            <polygon class="st2" points="1411.7929861 1353.63735 1331.8528872 1320.2717621 1361.9131787 1269.6691381 1395.6554995 1279.8544854 1426.6265921 1296.6793759 1411.7929861 1353.63735"/>
            <polygon class="st2" points="1411.7929861 1353.63735 1331.8528872 1320.2717621 1361.9131787 1269.6691381 1395.6554995 1279.8544854 1426.6265921 1296.6793759 1411.7929861 1353.63735"/>
            <polygon class="st2" points="1439.0448024 1581.0464499 1472.4103903 1501.106351 1523.0130143 1531.1666425 1512.8276669 1564.9089633 1496.0027765 1595.8800558 1439.0448024 1581.0464499"/>
            <polygon class="st2" points="1211.6357025 1608.2982661 1291.5758013 1641.663854 1261.5155099 1692.2664781 1227.7731891 1682.0811307 1196.8020965 1665.2562403 1211.6357025 1608.2982661"/>
            <polygon class="st2" points="1184.3838862 1380.8891662 1151.0182983 1460.8292651 1100.4156743 1430.7689737 1110.6010216 1397.0266529 1127.4259121 1366.0555603 1184.3838862 1380.8891662"/>
            <polygon class="st2" points="1472.5168609 1461.697864 1439.5837084 1381.5786445 1496.6210029 1367.0530218 1513.2782986 1398.1145739 1523.281174 1431.9114376 1472.5168609 1461.697864"/>
            <polygon class="st2" points="1330.9842884 1641.7703247 1411.1035078 1608.8371722 1425.6291305 1665.8744667 1394.5675785 1682.5317624 1360.7707148 1692.5346378 1330.9842884 1641.7703247"/>
            <polygon class="st2" points="1150.9118277 1500.2377521 1183.8449802 1580.3569716 1126.8076857 1594.8825943 1110.15039 1563.8210423 1100.1475146 1530.0241785 1150.9118277 1500.2377521"/>
            <polygon class="st2" points="1292.4444002 1320.1652914 1212.3251808 1353.098444 1197.7995581 1296.0611495 1228.8611101 1279.4038538 1262.6579738 1269.4009784 1292.4444002 1320.1652914"/>
          </g>
        </g>
        <g>
          <path class="st2" d="M1059.8808943,1552.4655023c-39.4870829,94.6064946-148.1914008,139.2895948-242.7978954,99.8025119-94.6064946-39.4870829-139.2896113-148.1913941-99.8025284-242.7978887,39.4870829-94.6064946,148.1914057-139.2896064,242.7979003-99.8025235s139.2896064,148.1914057,99.8025235,242.7979003ZM995.1674809,1525.4552644c24.5697421-58.8662672-3.2330924-126.5045118-62.099348-151.0742491-58.8662556-24.5697372-126.504507,3.2330808-151.0742491,62.099348-24.5697421,58.8662672,3.2330973,126.5045002,62.0993528,151.0742374,58.8662556,24.5697372,126.5045021-3.2330692,151.0742442-62.0993364Z"/>
          <g id="Inner8" data-name="Inner">
            <path class="st2" d="M878.0336604,1559.4414549c-43.3397921-5.8249554-73.7515765-45.6808791-67.926621-89.0206711,5.8249554-43.3397921,45.6808558-73.7515862,89.0206595-67.9266259,43.3398037,5.8249603,73.751593,45.6808723,67.9266375,89.0206644-5.8249603,43.3398037-45.6808839,73.7515881-89.020676,67.9266327ZM917.1908653,1484.8130843c2.1236884-15.8009764-8.9639512-30.3317766-24.7649044-32.4554553-15.8009764-2.1236884-30.331767,8.963928-32.4554553,24.7649044-2.1236884,15.8009764,8.9639512,30.3317766,24.7649044,32.4554553,15.8009764,2.1236884,30.3317766-8.9639512,32.4554553-24.7649044Z"/>
          </g>
          <g id="Teeth9" data-name="Teeth">
            <polygon class="st2" points="988.6593267 1353.63735 908.7192278 1320.2717621 938.7795192 1269.6691381 972.52184 1279.8544854 1003.4929326 1296.6793759 988.6593267 1353.63735"/>
            <polygon class="st2" points="988.6593267 1353.63735 908.7192278 1320.2717621 938.7795192 1269.6691381 972.52184 1279.8544854 1003.4929326 1296.6793759 988.6593267 1353.63735"/>
            <polygon class="st2" points="1015.9111429 1581.0464499 1049.2767308 1501.106351 1099.8793549 1531.1666425 1089.6940075 1564.9089633 1072.869117 1595.8800558 1015.9111429 1581.0464499"/>
            <polygon class="st2" points="788.502043 1608.2982661 868.4421419 1641.663854 838.3818505 1692.2664781 804.6395297 1682.0811307 773.6684371 1665.2562403 788.502043 1608.2982661"/>
            <polygon class="st2" points="761.2502268 1380.8891662 727.8846389 1460.8292651 677.2820148 1430.7689737 687.4673622 1397.0266529 704.2922527 1366.0555603 761.2502268 1380.8891662"/>
            <polygon class="st2" points="1049.3832015 1461.697864 1016.4500489 1381.5786445 1073.4873435 1367.0530218 1090.1446391 1398.1145739 1100.1475146 1431.9114376 1049.3832015 1461.697864"/>
            <polygon class="st2" points="907.8506289 1641.7703247 987.9698484 1608.8371722 1002.4954711 1665.8744667 971.433919 1682.5317624 937.6370553 1692.5346378 907.8506289 1641.7703247"/>
            <polygon class="st2" points="727.7781682 1500.2377521 760.7113208 1580.3569716 703.6740262 1594.8825943 687.0167306 1563.8210423 677.0138551 1530.0241785 727.7781682 1500.2377521"/>
            <polygon class="st2" points="869.3107408 1320.1652914 789.1915213 1353.098444 774.6658986 1296.0611495 805.7274507 1279.4038538 839.5243144 1269.4009784 869.3107408 1320.1652914"/>
          </g>
        </g>
        <g>
          <path class="st2" d="M636.7472349,1552.4655023c-39.4870829,94.6064946-148.1914008,139.2895948-242.7978954,99.8025119-94.6064946-39.4870829-139.2896113-148.1913941-99.8025284-242.7978887,39.4870829-94.6064946,148.1914057-139.2896064,242.7979003-99.8025235s139.2896064,148.1914057,99.8025235,242.7979003ZM572.0338215,1525.4552644c24.5697421-58.8662672-3.2330924-126.5045118-62.099348-151.0742491-58.8662556-24.5697372-126.504507,3.2330808-151.0742491,62.099348-24.5697421,58.8662672,3.2330973,126.5045002,62.0993528,151.0742374,58.8662556,24.5697372,126.5045021-3.2330692,151.0742442-62.0993364Z"/>
          <g id="Inner9" data-name="Inner">
            <path class="st2" d="M454.900001,1559.4414549c-43.3397921-5.8249554-73.7515765-45.6808791-67.926621-89.0206711,5.8249554-43.3397921,45.6808558-73.7515862,89.0206595-67.9266259,43.3398037,5.8249603,73.751593,45.6808723,67.9266375,89.0206644-5.8249603,43.3398037-45.6808839,73.7515881-89.020676,67.9266327ZM494.0572059,1484.8130843c2.1236884-15.8009764-8.9639512-30.3317766-24.7649044-32.4554553-15.8009764-2.1236884-30.331767,8.963928-32.4554553,24.7649044-2.1236884,15.8009764,8.9639512,30.3317766,24.7649044,32.4554553,15.8009764,2.1236884,30.3317766-8.9639512,32.4554553-24.7649044Z"/>
          </g>
          <g id="Teeth10" data-name="Teeth">
            <polygon class="st2" points="565.5256672 1353.63735 485.5855683 1320.2717621 515.6458598 1269.6691381 549.3881806 1279.8544854 580.3592732 1296.6793759 565.5256672 1353.63735"/>
            <polygon class="st2" points="565.5256672 1353.63735 485.5855683 1320.2717621 515.6458598 1269.6691381 549.3881806 1279.8544854 580.3592732 1296.6793759 565.5256672 1353.63735"/>
            <polygon class="st2" points="592.7774835 1581.0464499 626.1430714 1501.106351 676.7456954 1531.1666425 666.560348 1564.9089633 649.7354576 1595.8800558 592.7774835 1581.0464499"/>
            <polygon class="st2" points="365.3683836 1608.2982661 445.3084824 1641.663854 415.248191 1692.2664781 381.5058702 1682.0811307 350.5347776 1665.2562403 365.3683836 1608.2982661"/>
            <polygon class="st2" points="338.1165673 1380.8891662 304.7509794 1460.8292651 254.1483554 1430.7689737 264.3337027 1397.0266529 281.1585932 1366.0555603 338.1165673 1380.8891662"/>
            <polygon class="st2" points="626.249542 1461.697864 593.3163895 1381.5786445 650.353684 1367.0530218 667.0109797 1398.1145739 677.0138551 1431.9114376 626.249542 1461.697864"/>
            <polygon class="st2" points="484.7169695 1641.7703247 564.8361889 1608.8371722 579.3618116 1665.8744667 548.3002596 1682.5317624 514.5033959 1692.5346378 484.7169695 1641.7703247"/>
            <polygon class="st2" points="304.6445088 1500.2377521 337.5776613 1580.3569716 280.5403668 1594.8825943 263.8830711 1563.8210423 253.8801957 1530.0241785 304.6445088 1500.2377521"/>
            <polygon class="st2" points="446.1770813 1320.1652914 366.0578619 1353.098444 351.5322392 1296.0611495 382.5937912 1279.4038538 416.3906549 1269.4009784 446.1770813 1320.1652914"/>
          </g>
        </g>
        <g>
          <path class="st2" d="M213.6135754,1552.4655023c-39.4870829,94.6064946-148.1914008,139.2895948-242.7978954,99.8025119-94.6064946-39.4870829-139.2896113-148.1913941-99.8025284-242.7978887,39.4870829-94.6064946,148.1914057-139.2896064,242.7979003-99.8025235s139.2896064,148.1914057,99.8025235,242.7979003ZM148.900162,1525.4552644c24.5697421-58.8662672-3.2330924-126.5045118-62.099348-151.0742491-58.8662556-24.5697372-126.504507,3.2330808-151.0742491,62.099348-24.5697421,58.8662672,3.2330973,126.5045002,62.0993528,151.0742374,58.8662556,24.5697372,126.5045021-3.2330692,151.0742442-62.0993364Z"/>
          <g id="Inner10" data-name="Inner">
            <path class="st2" d="M31.7663415,1559.4414549c-43.3397921-5.8249554-73.7515765-45.6808791-67.926621-89.0206711,5.8249554-43.3397921,45.6808558-73.7515862,89.0206595-67.9266259,43.3398037,5.8249603,73.751593,45.6808723,67.9266375,89.0206644-5.8249603,43.3398037-45.6808839,73.7515881-89.020676,67.9266327ZM70.9235464,1484.8130843c2.1236884-15.8009764-8.9639512-30.3317766-24.7649044-32.4554553-15.8009764-2.1236884-30.331767,8.963928-32.4554553,24.7649044-2.1236884,15.8009764,8.9639512,30.3317766,24.7649044,32.4554553,15.8009764,2.1236884,30.3317766-8.9639512,32.4554553-24.7649044Z"/>
          </g>
          <g id="Teeth11" data-name="Teeth">
            <polygon class="st2" points="142.3920078 1353.63735 62.4519089 1320.2717621 92.5122003 1269.6691381 126.2545211 1279.8544854 157.2256137 1296.6793759 142.3920078 1353.63735"/>
            <polygon class="st2" points="142.3920078 1353.63735 62.4519089 1320.2717621 92.5122003 1269.6691381 126.2545211 1279.8544854 157.2256137 1296.6793759 142.3920078 1353.63735"/>
            <polygon class="st2" points="169.643824 1581.0464499 203.0094119 1501.106351 253.612036 1531.1666425 243.4266886 1564.9089633 226.6017981 1595.8800558 169.643824 1581.0464499"/>
            <polygon class="st2" points="-57.7652759 1608.2982661 22.174823 1641.663854 -7.8854684 1692.2664781 -41.6277892 1682.0811307 -72.5988818 1665.2562403 -57.7652759 1608.2982661"/>
            <polygon class="st2" points="203.1158826 1461.697864 170.18273 1381.5786445 227.2200246 1367.0530218 243.8773202 1398.1145739 253.8801957 1431.9114376 203.1158826 1461.697864"/>
            <polygon class="st2" points="61.58331 1641.7703247 141.7025295 1608.8371722 156.2281522 1665.8744667 125.1666001 1682.5317624 91.3697364 1692.5346378 61.58331 1641.7703247"/>
            <polygon class="st2" points="23.0434219 1320.1652914 -57.0757976 1353.098444 -71.6014203 1296.0611495 -40.5398682 1279.4038538 -6.7430045 1269.4009784 23.0434219 1320.1652914"/>
          </g>
        </g>
        <g>
          <path class="st2" d="M2075.401677,1129.3318428c-39.4870829,94.6064946-148.1914008,139.2895948-242.7978954,99.8025119-94.6064946-39.4870829-139.2896113-148.1913941-99.8025284-242.7978887,39.4870829-94.6064946,148.1914057-139.2896064,242.7979003-99.8025235s139.2896064,148.1914057,99.8025235,242.7979003ZM2010.6882636,1102.321605c24.5697421-58.8662672-3.2330924-126.5045118-62.099348-151.0742491-58.8662556-24.5697372-126.504507,3.2330808-151.0742491,62.099348s3.2330973,126.5045002,62.0993528,151.0742374c58.8662556,24.5697372,126.5045021-3.2330692,151.0742442-62.0993364Z"/>
          <g id="Inner11" data-name="Inner">
            <path class="st2" d="M1893.5544431,1136.3077955c-43.3397921-5.8249554-73.7515765-45.6808791-67.926621-89.0206711,5.8249554-43.3397921,45.6808558-73.7515862,89.0206595-67.9266259,43.3398037,5.8249603,73.751593,45.6808723,67.9266375,89.0206644-5.8249603,43.3398037-45.6808839,73.7515881-89.020676,67.9266327ZM1932.711648,1061.6794248c2.1236884-15.8009764-8.9639512-30.3317766-24.7649044-32.4554553-15.8009764-2.1236884-30.331767,8.963928-32.4554553,24.7649044-2.1236884,15.8009764,8.9639512,30.3317766,24.7649044,32.4554553,15.8009764,2.1236884,30.3317766-8.9639512,32.4554553-24.7649044Z"/>
          </g>
          <g id="Teeth12" data-name="Teeth">
            <polygon class="st2" points="2004.1801094 930.5036906 1924.2400105 897.1381027 1954.3003019 846.5354786 1988.0426227 856.720826 2019.0137153 873.5457164 2004.1801094 930.5036906"/>
            <polygon class="st2" points="2004.1801094 930.5036906 1924.2400105 897.1381027 1954.3003019 846.5354786 1988.0426227 856.720826 2019.0137153 873.5457164 2004.1801094 930.5036906"/>
            <polygon class="st2" points="2031.4319256 1157.9127905 2064.7975135 1077.9726916 2115.4001375 1108.032983 2105.2147902 1141.7753038 2088.3898997 1172.7463964 2031.4319256 1157.9127905"/>
            <polygon class="st2" points="1804.0228257 1185.1646067 1883.9629246 1218.5301946 1853.9026332 1269.1328186 1820.1603123 1258.9474713 1789.1892198 1242.1225808 1804.0228257 1185.1646067"/>
            <polygon class="st2" points="1776.7710095 957.7555068 1743.4054216 1037.6956057 1692.8027975 1007.6353143 1702.9881449 973.8929934 1719.8130353 942.9219009 1776.7710095 957.7555068"/>
            <polygon class="st2" points="2064.9039842 1038.5642046 2031.9708316 958.4449851 2089.0081261 943.9193624 2105.6654218 974.9809144 2115.6682973 1008.7777782 2064.9039842 1038.5642046"/>
            <polygon class="st2" points="1923.3714116 1218.6366653 2003.4906311 1185.7035127 2018.0162538 1242.7408072 1986.9547017 1259.3981029 1953.157838 1269.4009784 1923.3714116 1218.6366653"/>
            <polygon class="st2" points="1743.2989509 1077.1040927 1776.2321034 1157.2233122 1719.1948089 1171.7489349 1702.5375132 1140.6873828 1692.5346378 1106.8905191 1743.2989509 1077.1040927"/>
            <polygon class="st2" points="1884.8315235 897.031632 1804.712304 929.9647845 1790.1866813 872.92749 1821.2482333 856.2701943 1855.0450971 846.2673189 1884.8315235 897.031632"/>
          </g>
        </g>
        <g>
          <path class="st2" d="M1652.2680176,1129.3318428c-39.4870829,94.6064946-148.1914008,139.2895948-242.7978954,99.8025119-94.6064946-39.4870829-139.2896113-148.1913941-99.8025284-242.7978887,39.4870829-94.6064946,148.1914057-139.2896064,242.7979003-99.8025235s139.2896064,148.1914057,99.8025235,242.7979003ZM1587.5546042,1102.321605c24.5697421-58.8662672-3.2330924-126.5045118-62.099348-151.0742491-58.8662556-24.5697372-126.504507,3.2330808-151.0742491,62.099348s3.2330973,126.5045002,62.0993528,151.0742374c58.8662556,24.5697372,126.5045021-3.2330692,151.0742442-62.0993364Z"/>
          <g id="Inner12" data-name="Inner">
            <path class="st2" d="M1470.4207837,1136.3077955c-43.3397921-5.8249554-73.7515765-45.6808791-67.926621-89.0206711,5.8249554-43.3397921,45.6808558-73.7515862,89.0206595-67.9266259,43.3398037,5.8249603,73.751593,45.6808723,67.9266375,89.0206644-5.8249603,43.3398037-45.6808839,73.7515881-89.020676,67.9266327ZM1509.5779886,1061.6794248c2.1236884-15.8009764-8.9639512-30.3317766-24.7649044-32.4554553-15.8009764-2.1236884-30.331767,8.963928-32.4554553,24.7649044-2.1236884,15.8009764,8.9639512,30.3317766,24.7649044,32.4554553,15.8009764,2.1236884,30.3317766-8.9639512,32.4554553-24.7649044Z"/>
          </g>
          <g id="Teeth13" data-name="Teeth">
            <polygon class="st2" points="1581.0464499 930.5036906 1501.106351 897.1381027 1531.1666425 846.5354786 1564.9089633 856.720826 1595.8800558 873.5457164 1581.0464499 930.5036906"/>
            <polygon class="st2" points="1581.0464499 930.5036906 1501.106351 897.1381027 1531.1666425 846.5354786 1564.9089633 856.720826 1595.8800558 873.5457164 1581.0464499 930.5036906"/>
            <polygon class="st2" points="1608.2982661 1157.9127905 1641.663854 1077.9726916 1692.2664781 1108.032983 1682.0811307 1141.7753038 1665.2562403 1172.7463964 1608.2982661 1157.9127905"/>
            <polygon class="st2" points="1380.8891662 1185.1646067 1460.8292651 1218.5301946 1430.7689737 1269.1328186 1397.0266529 1258.9474713 1366.0555603 1242.1225808 1380.8891662 1185.1646067"/>
            <polygon class="st2" points="1353.63735 957.7555068 1320.2717621 1037.6956057 1269.6691381 1007.6353143 1279.8544854 973.8929934 1296.6793759 942.9219009 1353.63735 957.7555068"/>
            <polygon class="st2" points="1641.7703247 1038.5642046 1608.8371722 958.4449851 1665.8744667 943.9193624 1682.5317624 974.9809144 1692.5346378 1008.7777782 1641.7703247 1038.5642046"/>
            <polygon class="st2" points="1500.2377521 1218.6366653 1580.3569716 1185.7035127 1594.8825943 1242.7408072 1563.8210423 1259.3981029 1530.0241785 1269.4009784 1500.2377521 1218.6366653"/>
            <polygon class="st2" points="1320.1652914 1077.1040927 1353.098444 1157.2233122 1296.0611495 1171.7489349 1279.4038538 1140.6873828 1269.4009784 1106.8905191 1320.1652914 1077.1040927"/>
            <polygon class="st2" points="1461.697864 897.031632 1381.5786445 929.9647845 1367.0530218 872.92749 1398.1145739 856.2701943 1431.9114376 846.2673189 1461.697864 897.031632"/>
          </g>
        </g>
        <g>
          <path class="st2" d="M1229.1343581,1129.3318428c-39.4870829,94.6064946-148.1914008,139.2895948-242.7978954,99.8025119-94.6064946-39.4870829-139.2896113-148.1913941-99.8025284-242.7978887,39.4870829-94.6064946,148.1914057-139.2896064,242.7979003-99.8025235s139.2896064,148.1914057,99.8025235,242.7979003ZM1164.4209447,1102.321605c24.5697421-58.8662672-3.2330924-126.5045118-62.099348-151.0742491-58.8662556-24.5697372-126.504507,3.2330808-151.0742491,62.099348-24.5697421,58.8662672,3.2330973,126.5045002,62.0993528,151.0742374,58.8662556,24.5697372,126.5045021-3.2330692,151.0742442-62.0993364Z"/>
          <g id="Inner13" data-name="Inner">
            <path class="st2" d="M1047.2871242,1136.3077955c-43.3397921-5.8249554-73.7515765-45.6808791-67.926621-89.0206711,5.8249554-43.3397921,45.6808558-73.7515862,89.0206595-67.9266259,43.3398037,5.8249603,73.751593,45.6808723,67.9266375,89.0206644-5.8249603,43.3398037-45.6808839,73.7515881-89.020676,67.9266327ZM1086.4443291,1061.6794248c2.1236884-15.8009764-8.9639512-30.3317766-24.7649044-32.4554553-15.8009764-2.1236884-30.331767,8.963928-32.4554553,24.7649044-2.1236884,15.8009764,8.9639512,30.3317766,24.7649044,32.4554553,15.8009764,2.1236884,30.3317766-8.9639512,32.4554553-24.7649044Z"/>
          </g>
          <g id="Teeth14" data-name="Teeth">
            <polygon class="st2" points="1157.9127905 930.5036906 1077.9726916 897.1381027 1108.032983 846.5354786 1141.7753038 856.720826 1172.7463964 873.5457164 1157.9127905 930.5036906"/>
            <polygon class="st2" points="1157.9127905 930.5036906 1077.9726916 897.1381027 1108.032983 846.5354786 1141.7753038 856.720826 1172.7463964 873.5457164 1157.9127905 930.5036906"/>
            <polygon class="st2" points="1185.1646067 1157.9127905 1218.5301946 1077.9726916 1269.1328186 1108.032983 1258.9474713 1141.7753038 1242.1225808 1172.7463964 1185.1646067 1157.9127905"/>
            <polygon class="st2" points="957.7555068 1185.1646067 1037.6956057 1218.5301946 1007.6353143 1269.1328186 973.8929934 1258.9474713 942.9219009 1242.1225808 957.7555068 1185.1646067"/>
            <polygon class="st2" points="930.5036906 957.7555068 897.1381027 1037.6956057 846.5354786 1007.6353143 856.720826 973.8929934 873.5457164 942.9219009 930.5036906 957.7555068"/>
            <polygon class="st2" points="1218.6366653 1038.5642046 1185.7035127 958.4449851 1242.7408072 943.9193624 1259.3981029 974.9809144 1269.4009784 1008.7777782 1218.6366653 1038.5642046"/>
            <polygon class="st2" points="1077.1040927 1218.6366653 1157.2233122 1185.7035127 1171.7489349 1242.7408072 1140.6873828 1259.3981029 1106.8905191 1269.4009784 1077.1040927 1218.6366653"/>
            <polygon class="st2" points="897.031632 1077.1040927 929.9647845 1157.2233122 872.92749 1171.7489349 856.2701943 1140.6873828 846.2673189 1106.8905191 897.031632 1077.1040927"/>
            <polygon class="st2" points="1038.5642046 897.031632 958.4449851 929.9647845 943.9193624 872.92749 974.9809144 856.2701943 1008.7777782 846.2673189 1038.5642046 897.031632"/>
          </g>
        </g>
        <g>
          <path class="st2" d="M806.0006987,1129.3318428c-39.4870829,94.6064946-148.1914008,139.2895948-242.7978954,99.8025119-94.6064946-39.4870829-139.2896113-148.1913941-99.8025284-242.7978887,39.4870829-94.6064946,148.1914057-139.2896064,242.7979003-99.8025235s139.2896064,148.1914057,99.8025235,242.7979003ZM741.2872853,1102.321605c24.5697421-58.8662672-3.2330924-126.5045118-62.099348-151.0742491-58.8662556-24.5697372-126.504507,3.2330808-151.0742491,62.099348-24.5697421,58.8662672,3.2330973,126.5045002,62.0993528,151.0742374,58.8662556,24.5697372,126.5045021-3.2330692,151.0742442-62.0993364Z"/>
          <g id="Inner14" data-name="Inner">
            <path class="st2" d="M624.1534648,1136.3077955c-43.3397921-5.8249554-73.7515765-45.6808791-67.926621-89.0206711,5.8249554-43.3397921,45.6808558-73.7515862,89.0206595-67.9266259,43.3398037,5.8249603,73.751593,45.6808723,67.9266375,89.0206644-5.8249603,43.3398037-45.6808839,73.7515881-89.020676,67.9266327ZM663.3106697,1061.6794248c2.1236884-15.8009764-8.9639512-30.3317766-24.7649044-32.4554553-15.8009764-2.1236884-30.331767,8.963928-32.4554553,24.7649044-2.1236884,15.8009764,8.9639512,30.3317766,24.7649044,32.4554553,15.8009764,2.1236884,30.3317766-8.9639512,32.4554553-24.7649044Z"/>
          </g>
          <g id="Teeth15" data-name="Teeth">
            <polygon class="st2" points="734.779131 930.5036906 654.8390321 897.1381027 684.8993236 846.5354786 718.6416444 856.720826 749.6127369 873.5457164 734.779131 930.5036906"/>
            <polygon class="st2" points="734.779131 930.5036906 654.8390321 897.1381027 684.8993236 846.5354786 718.6416444 856.720826 749.6127369 873.5457164 734.779131 930.5036906"/>
            <polygon class="st2" points="762.0309472 1157.9127905 795.3965351 1077.9726916 845.9991592 1108.032983 835.8138118 1141.7753038 818.9889214 1172.7463964 762.0309472 1157.9127905"/>
            <polygon class="st2" points="534.6218473 1185.1646067 614.5619462 1218.5301946 584.5016548 1269.1328186 550.759334 1258.9474713 519.7882414 1242.1225808 534.6218473 1185.1646067"/>
            <polygon class="st2" points="507.3700311 957.7555068 474.0044432 1037.6956057 423.4018192 1007.6353143 433.5871665 973.8929934 450.412057 942.9219009 507.3700311 957.7555068"/>
            <polygon class="st2" points="795.5030058 1038.5642046 762.5698533 958.4449851 819.6071478 943.9193624 836.2644435 974.9809144 846.2673189 1008.7777782 795.5030058 1038.5642046"/>
            <polygon class="st2" points="653.9704332 1218.6366653 734.0896527 1185.7035127 748.6152754 1242.7408072 717.5537234 1259.3981029 683.7568596 1269.4009784 653.9704332 1218.6366653"/>
            <polygon class="st2" points="473.8979725 1077.1040927 506.8311251 1157.2233122 449.7938306 1171.7489349 433.1365349 1140.6873828 423.1336595 1106.8905191 473.8979725 1077.1040927"/>
            <polygon class="st2" points="615.4305451 897.031632 535.3113256 929.9647845 520.7857029 872.92749 551.847255 856.2701943 585.6441187 846.2673189 615.4305451 897.031632"/>
          </g>
        </g>
        <g>
          <path class="st2" d="M382.8670392,1129.3318428c-39.4870829,94.6064946-148.1914008,139.2895948-242.7978954,99.8025119-94.6064946-39.4870829-139.2896113-148.1913941-99.8025284-242.7978887,39.4870829-94.6064946,148.1914057-139.2896064,242.7979003-99.8025235s139.2896064,148.1914057,99.8025235,242.7979003ZM318.1536258,1102.321605c24.5697421-58.8662672-3.2330924-126.5045118-62.099348-151.0742491-58.8662556-24.5697372-126.504507,3.2330808-151.0742491,62.099348-24.5697421,58.8662672,3.2330973,126.5045002,62.0993528,151.0742374,58.8662556,24.5697372,126.5045021-3.2330692,151.0742442-62.0993364Z"/>
          <g id="Inner15" data-name="Inner">
            <path class="st2" d="M201.0198053,1136.3077955c-43.3397921-5.8249554-73.7515765-45.6808791-67.926621-89.0206711,5.8249554-43.3397921,45.6808558-73.7515862,89.0206595-67.9266259,43.3398037,5.8249603,73.751593,45.6808723,67.9266375,89.0206644-5.8249603,43.3398037-45.6808839,73.7515881-89.020676,67.9266327ZM240.1770102,1061.6794248c2.1236884-15.8009764-8.9639512-30.3317766-24.7649044-32.4554553-15.8009764-2.1236884-30.331767,8.963928-32.4554553,24.7649044-2.1236884,15.8009764,8.9639512,30.3317766,24.7649044,32.4554553,15.8009764,2.1236884,30.3317766-8.9639512,32.4554553-24.7649044Z"/>
          </g>
          <g id="Teeth16" data-name="Teeth">
            <polygon class="st2" points="311.6454716 930.5036906 231.7053727 897.1381027 261.7656641 846.5354786 295.5079849 856.720826 326.4790775 873.5457164 311.6454716 930.5036906"/>
            <polygon class="st2" points="311.6454716 930.5036906 231.7053727 897.1381027 261.7656641 846.5354786 295.5079849 856.720826 326.4790775 873.5457164 311.6454716 930.5036906"/>
            <polygon class="st2" points="338.8972878 1157.9127905 372.2628757 1077.9726916 422.8654997 1108.032983 412.6801524 1141.7753038 395.8552619 1172.7463964 338.8972878 1157.9127905"/>
            <polygon class="st2" points="111.4881879 1185.1646067 191.4282868 1218.5301946 161.3679953 1269.1328186 127.6256745 1258.9474713 96.654582 1242.1225808 111.4881879 1185.1646067"/>
            <polygon class="st2" points="84.2363717 957.7555068 50.8707838 1037.6956057 .2681597 1007.6353143 10.4535071 973.8929934 27.2783975 942.9219009 84.2363717 957.7555068"/>
            <polygon class="st2" points="372.3693464 1038.5642046 339.4361938 958.4449851 396.4734883 943.9193624 413.130784 974.9809144 423.1336595 1008.7777782 372.3693464 1038.5642046"/>
            <polygon class="st2" points="230.8367738 1218.6366653 310.9559933 1185.7035127 325.481616 1242.7408072 294.4200639 1259.3981029 260.6232002 1269.4009784 230.8367738 1218.6366653"/>
            <polygon class="st2" points="50.7643131 1077.1040927 83.6974656 1157.2233122 26.6601711 1171.7489349 10.0028754 1140.6873828 0 1106.8905191 50.7643131 1077.1040927"/>
            <polygon class="st2" points="192.2968857 897.031632 112.1776662 929.9647845 97.6520435 872.92749 128.7135955 856.2701943 162.5104593 846.2673189 192.2968857 897.031632"/>
          </g>
        </g>
        <g>
          <path class="st2" d="M2244.6551408,706.1981834c-39.4870829,94.6064946-148.1914008,139.2895948-242.7978954,99.8025119-94.6064946-39.4870829-139.2896113-148.1913941-99.8025284-242.7978887,39.4870829-94.6064946,148.1914057-139.2896064,242.7979003-99.8025235s139.2896064,148.1914057,99.8025235,242.7979003ZM2179.9417274,679.1879455c24.5697421-58.8662672-3.2330924-126.5045118-62.099348-151.0742491-58.8662556-24.5697372-126.504507,3.2330808-151.0742491,62.099348s3.2330973,126.5045002,62.0993528,151.0742374c58.8662556,24.5697372,126.5045021-3.2330692,151.0742442-62.0993364Z"/>
          <g id="Inner16" data-name="Inner">
            <path class="st2" d="M2062.8079069,713.174136c-43.3397921-5.8249554-73.7515765-45.6808791-67.926621-89.0206711,5.8249554-43.3397921,45.6808558-73.7515862,89.0206595-67.9266259,43.3398037,5.8249603,73.751593,45.6808723,67.9266375,89.0206644-5.8249603,43.3398037-45.6808839,73.7515881-89.020676,67.9266327ZM2101.9651118,638.5457654c2.1236884-15.8009764-8.9639512-30.3317766-24.7649044-32.4554553-15.8009764-2.1236884-30.331767,8.963928-32.4554553,24.7649044-2.1236884,15.8009764,8.9639512,30.3317766,24.7649044,32.4554553,15.8009764,2.1236884,30.3317766-8.9639512,32.4554553-24.7649044Z"/>
          </g>
          <g id="Teeth17" data-name="Teeth">
            <polygon class="st2" points="2173.4335731 507.3700311 2093.4934743 474.0044432 2123.5537657 423.4018192 2157.2960865 433.5871665 2188.2671791 450.412057 2173.4335731 507.3700311"/>
            <polygon class="st2" points="2173.4335731 507.3700311 2093.4934743 474.0044432 2123.5537657 423.4018192 2157.2960865 433.5871665 2188.2671791 450.412057 2173.4335731 507.3700311"/>
            <polygon class="st2" points="1973.2762895 762.0309472 2053.2163884 795.3965351 2023.1560969 845.9991592 1989.4137761 835.8138118 1958.4426835 818.9889214 1973.2762895 762.0309472"/>
            <polygon class="st2" points="1946.0244732 534.6218473 1912.6588853 614.5619462 1862.0562613 584.5016548 1872.2416087 550.759334 1889.0664991 519.7882414 1946.0244732 534.6218473"/>
            <polygon class="st2" points="2092.6248754 795.5030058 2172.7440948 762.5698533 2187.2697175 819.6071478 2156.2081655 836.2644435 2122.4113018 846.2673189 2092.6248754 795.5030058"/>
            <polygon class="st2" points="1912.5524147 653.9704332 1945.4855672 734.0896527 1888.4482727 748.6152754 1871.790977 717.5537234 1861.7881016 683.7568596 1912.5524147 653.9704332"/>
            <polygon class="st2" points="2054.0849873 473.8979725 1973.9657678 506.8311251 1959.4401451 449.7938306 1990.5016971 433.1365349 2024.2985608 423.1336595 2054.0849873 473.8979725"/>
          </g>
        </g>
        <g>
          <path class="st2" d="M1821.5214813,706.1981834c-39.4870829,94.6064946-148.1914008,139.2895948-242.7978954,99.8025119-94.6064946-39.4870829-139.2896113-148.1913941-99.8025284-242.7978887,39.4870829-94.6064946,148.1914057-139.2896064,242.7979003-99.8025235s139.2896064,148.1914057,99.8025235,242.7979003ZM1756.808068,679.1879455c24.5697421-58.8662672-3.2330924-126.5045118-62.099348-151.0742491-58.8662556-24.5697372-126.504507,3.2330808-151.0742491,62.099348s3.2330973,126.5045002,62.0993528,151.0742374c58.8662556,24.5697372,126.5045021-3.2330692,151.0742442-62.0993364Z"/>
          <g id="Inner17" data-name="Inner">
            <path class="st2" d="M1639.6742474,713.174136c-43.3397921-5.8249554-73.7515765-45.6808791-67.926621-89.0206711,5.8249554-43.3397921,45.6808558-73.7515862,89.0206595-67.9266259,43.3398037,5.8249603,73.751593,45.6808723,67.9266375,89.0206644-5.8249603,43.3398037-45.6808839,73.7515881-89.020676,67.9266327ZM1678.8314524,638.5457654c2.1236884-15.8009764-8.9639512-30.3317766-24.7649044-32.4554553-15.8009764-2.1236884-30.331767,8.963928-32.4554553,24.7649044-2.1236884,15.8009764,8.9639512,30.3317766,24.7649044,32.4554553,15.8009764,2.1236884,30.3317766-8.9639512,32.4554553-24.7649044Z"/>
          </g>
          <g id="Teeth18" data-name="Teeth">
            <polygon class="st2" points="1750.2999137 507.3700311 1670.3598148 474.0044432 1700.4201062 423.4018192 1734.162427 433.5871665 1765.1335196 450.412057 1750.2999137 507.3700311"/>
            <polygon class="st2" points="1750.2999137 507.3700311 1670.3598148 474.0044432 1700.4201062 423.4018192 1734.162427 433.5871665 1765.1335196 450.412057 1750.2999137 507.3700311"/>
            <polygon class="st2" points="1777.5517299 734.779131 1810.9173178 654.8390321 1861.5199419 684.8993236 1851.3345945 718.6416444 1834.509704 749.6127369 1777.5517299 734.779131"/>
            <polygon class="st2" points="1550.14263 762.0309472 1630.0827289 795.3965351 1600.0224375 845.9991592 1566.2801167 835.8138118 1535.3090241 818.9889214 1550.14263 762.0309472"/>
            <polygon class="st2" points="1522.8908138 534.6218473 1489.5252259 614.5619462 1438.9226018 584.5016548 1449.1079492 550.759334 1465.9328397 519.7882414 1522.8908138 534.6218473"/>
            <polygon class="st2" points="1811.0237885 615.4305451 1778.090636 535.3113256 1835.1279305 520.7857029 1851.7852261 551.847255 1861.7881016 585.6441187 1811.0237885 615.4305451"/>
            <polygon class="st2" points="1669.4912159 795.5030058 1749.6104354 762.5698533 1764.1360581 819.6071478 1733.074506 836.2644435 1699.2776423 846.2673189 1669.4912159 795.5030058"/>
            <polygon class="st2" points="1489.4187552 653.9704332 1522.3519078 734.0896527 1465.3146132 748.6152754 1448.6573176 717.5537234 1438.6544421 683.7568596 1489.4187552 653.9704332"/>
            <polygon class="st2" points="1630.9513278 473.8979725 1550.8321083 506.8311251 1536.3064856 449.7938306 1567.3680377 433.1365349 1601.1649014 423.1336595 1630.9513278 473.8979725"/>
          </g>
        </g>
        <g>
          <path class="st2" d="M1398.3878219,706.1981834c-39.4870829,94.6064946-148.1914008,139.2895948-242.7978954,99.8025119s-139.2896113-148.1913941-99.8025284-242.7978887c39.4870829-94.6064946,148.1914057-139.2896064,242.7979003-99.8025235s139.2896064,148.1914057,99.8025235,242.7979003ZM1333.6744085,679.1879455c24.5697421-58.8662672-3.2330924-126.5045118-62.099348-151.0742491-58.8662556-24.5697372-126.504507,3.2330808-151.0742491,62.099348s3.2330973,126.5045002,62.0993528,151.0742374c58.8662556,24.5697372,126.5045021-3.2330692,151.0742442-62.0993364Z"/>
          <g id="Inner18" data-name="Inner">
            <path class="st2" d="M1216.540588,713.174136c-43.3397921-5.8249554-73.7515765-45.6808791-67.926621-89.0206711,5.8249554-43.3397921,45.6808558-73.7515862,89.0206595-67.9266259,43.3398037,5.8249603,73.751593,45.6808723,67.9266375,89.0206644-5.8249603,43.3398037-45.6808839,73.7515881-89.020676,67.9266327ZM1255.6977929,638.5457654c2.1236884-15.8009764-8.9639512-30.3317766-24.7649044-32.4554553-15.8009764-2.1236884-30.331767,8.963928-32.4554553,24.7649044-2.1236884,15.8009764,8.9639512,30.3317766,24.7649044,32.4554553,15.8009764,2.1236884,30.3317766-8.9639512,32.4554553-24.7649044Z"/>
          </g>
          <g id="Teeth19" data-name="Teeth">
            <polygon class="st2" points="1327.1662542 507.3700311 1247.2261554 474.0044432 1277.2864468 423.4018192 1311.0287676 433.5871665 1341.9998602 450.412057 1327.1662542 507.3700311"/>
            <polygon class="st2" points="1327.1662542 507.3700311 1247.2261554 474.0044432 1277.2864468 423.4018192 1311.0287676 433.5871665 1341.9998602 450.412057 1327.1662542 507.3700311"/>
            <polygon class="st2" points="1354.4180705 734.779131 1387.7836584 654.8390321 1438.3862824 684.8993236 1428.2009351 718.6416444 1411.3760446 749.6127369 1354.4180705 734.779131"/>
            <polygon class="st2" points="1127.0089706 762.0309472 1206.9490695 795.3965351 1176.888778 845.9991592 1143.1464572 835.8138118 1112.1753646 818.9889214 1127.0089706 762.0309472"/>
            <polygon class="st2" points="1099.7571543 534.6218473 1066.3915664 614.5619462 1015.7889424 584.5016548 1025.9742898 550.759334 1042.7991802 519.7882414 1099.7571543 534.6218473"/>
            <polygon class="st2" points="1387.890129 615.4305451 1354.9569765 535.3113256 1411.994271 520.7857029 1428.6515667 551.847255 1438.6544421 585.6441187 1387.890129 615.4305451"/>
            <polygon class="st2" points="1246.3575565 795.5030058 1326.4767759 762.5698533 1341.0023986 819.6071478 1309.9408466 836.2644435 1276.1439829 846.2673189 1246.3575565 795.5030058"/>
            <polygon class="st2" points="1066.2850958 653.9704332 1099.2182483 734.0896527 1042.1809538 748.6152754 1025.5236581 717.5537234 1015.5207827 683.7568596 1066.2850958 653.9704332"/>
            <polygon class="st2" points="1207.8176684 473.8979725 1127.6984489 506.8311251 1113.1728262 449.7938306 1144.2343782 433.1365349 1178.0312419 423.1336595 1207.8176684 473.8979725"/>
          </g>
        </g>
        <g>
          <path class="st2" d="M975.2541624,706.1981834c-39.4870829,94.6064946-148.1914008,139.2895948-242.7978954,99.8025119-94.6064946-39.4870829-139.2896113-148.1913941-99.8025284-242.7978887,39.4870829-94.6064946,148.1914057-139.2896064,242.7979003-99.8025235s139.2896064,148.1914057,99.8025235,242.7979003ZM910.540749,679.1879455c24.5697421-58.8662672-3.2330924-126.5045118-62.099348-151.0742491-58.8662556-24.5697372-126.504507,3.2330808-151.0742491,62.099348-24.5697421,58.8662672,3.2330973,126.5045002,62.0993528,151.0742374,58.8662556,24.5697372,126.5045021-3.2330692,151.0742442-62.0993364Z"/>
          <g id="Inner19" data-name="Inner">
            <path class="st2" d="M793.4069285,713.174136c-43.3397921-5.8249554-73.7515765-45.6808791-67.926621-89.0206711,5.8249554-43.3397921,45.6808558-73.7515862,89.0206595-67.9266259,43.3398037,5.8249603,73.751593,45.6808723,67.9266375,89.0206644-5.8249603,43.3398037-45.6808839,73.7515881-89.020676,67.9266327ZM832.5641335,638.5457654c2.1236884-15.8009764-8.9639512-30.3317766-24.7649044-32.4554553-15.8009764-2.1236884-30.331767,8.963928-32.4554553,24.7649044-2.1236884,15.8009764,8.9639512,30.3317766,24.7649044,32.4554553,15.8009764,2.1236884,30.3317766-8.9639512,32.4554553-24.7649044Z"/>
          </g>
          <g id="Teeth20" data-name="Teeth">
            <polygon class="st2" points="904.0325948 507.3700311 824.0924959 474.0044432 854.1527873 423.4018192 887.8951081 433.5871665 918.8662007 450.412057 904.0325948 507.3700311"/>
            <polygon class="st2" points="904.0325948 507.3700311 824.0924959 474.0044432 854.1527873 423.4018192 887.8951081 433.5871665 918.8662007 450.412057 904.0325948 507.3700311"/>
            <polygon class="st2" points="931.284411 734.779131 964.6499989 654.8390321 1015.252623 684.8993236 1005.0672756 718.6416444 988.2423851 749.6127369 931.284411 734.779131"/>
            <polygon class="st2" points="703.8753111 762.0309472 783.81541 795.3965351 753.7551186 845.9991592 720.0127978 835.8138118 689.0417052 818.9889214 703.8753111 762.0309472"/>
            <polygon class="st2" points="676.6234949 534.6218473 643.257907 614.5619462 592.6552829 584.5016548 602.8406303 550.759334 619.6655208 519.7882414 676.6234949 534.6218473"/>
            <polygon class="st2" points="964.7564696 615.4305451 931.8233171 535.3113256 988.8606116 520.7857029 1005.5179072 551.847255 1015.5207827 585.6441187 964.7564696 615.4305451"/>
            <polygon class="st2" points="823.223897 795.5030058 903.3431165 762.5698533 917.8687392 819.6071478 886.8071871 836.2644435 853.0103234 846.2673189 823.223897 795.5030058"/>
            <polygon class="st2" points="643.1514363 653.9704332 676.0845889 734.0896527 619.0472943 748.6152754 602.3899987 717.5537234 592.3871232 683.7568596 643.1514363 653.9704332"/>
            <polygon class="st2" points="784.6840089 473.8979725 704.5647894 506.8311251 690.0391667 449.7938306 721.1007188 433.1365349 754.8975825 423.1336595 784.6840089 473.8979725"/>
          </g>
        </g>
        <g>
          <path class="st2" d="M552.120503,706.1981834c-39.4870829,94.6064946-148.1914008,139.2895948-242.7978954,99.8025119-94.6064946-39.4870829-139.2896113-148.1913941-99.8025284-242.7978887,39.4870829-94.6064946,148.1914057-139.2896064,242.7979003-99.8025235s139.2896064,148.1914057,99.8025235,242.7979003ZM487.4070896,679.1879455c24.5697421-58.8662672-3.2330924-126.5045118-62.099348-151.0742491-58.8662556-24.5697372-126.504507,3.2330808-151.0742491,62.099348-24.5697421,58.8662672,3.2330973,126.5045002,62.0993528,151.0742374,58.8662556,24.5697372,126.5045021-3.2330692,151.0742442-62.0993364Z"/>
          <g id="Inner20" data-name="Inner">
            <path class="st2" d="M370.2732691,713.174136c-43.3397921-5.8249554-73.7515765-45.6808791-67.926621-89.0206711,5.8249554-43.3397921,45.6808558-73.7515862,89.0206595-67.9266259,43.3398037,5.8249603,73.751593,45.6808723,67.9266375,89.0206644-5.8249603,43.3398037-45.6808839,73.7515881-89.020676,67.9266327ZM409.430474,638.5457654c2.1236884-15.8009764-8.9639512-30.3317766-24.7649044-32.4554553-15.8009764-2.1236884-30.331767,8.963928-32.4554553,24.7649044-2.1236884,15.8009764,8.9639512,30.3317766,24.7649044,32.4554553,15.8009764,2.1236884,30.3317766-8.9639512,32.4554553-24.7649044Z"/>
          </g>
          <g id="Teeth21" data-name="Teeth">
            <polygon class="st2" points="480.8989353 507.3700311 400.9588365 474.0044432 431.0191279 423.4018192 464.7614487 433.5871665 495.7325413 450.412057 480.8989353 507.3700311"/>
            <polygon class="st2" points="480.8989353 507.3700311 400.9588365 474.0044432 431.0191279 423.4018192 464.7614487 433.5871665 495.7325413 450.412057 480.8989353 507.3700311"/>
            <polygon class="st2" points="508.1507516 734.779131 541.5163395 654.8390321 592.1189635 684.8993236 581.9336162 718.6416444 565.1087257 749.6127369 508.1507516 734.779131"/>
            <polygon class="st2" points="280.7416517 762.0309472 360.6817506 795.3965351 330.6214591 845.9991592 296.8791383 835.8138118 265.9080457 818.9889214 280.7416517 762.0309472"/>
            <polygon class="st2" points="253.4898354 534.6218473 220.1242475 614.5619462 169.5216235 584.5016548 179.7069709 550.759334 196.5318613 519.7882414 253.4898354 534.6218473"/>
            <polygon class="st2" points="541.6228101 615.4305451 508.6896576 535.3113256 565.7269521 520.7857029 582.3842478 551.847255 592.3871232 585.6441187 541.6228101 615.4305451"/>
            <polygon class="st2" points="400.0902376 795.5030058 480.209457 762.5698533 494.7350797 819.6071478 463.6735277 836.2644435 429.876664 846.2673189 400.0902376 795.5030058"/>
            <polygon class="st2" points="220.0177769 653.9704332 252.9509294 734.0896527 195.9136349 748.6152754 179.2563392 717.5537234 169.2534638 683.7568596 220.0177769 653.9704332"/>
            <polygon class="st2" points="361.5503495 473.8979725 281.43113 506.8311251 266.9055073 449.7938306 297.9670593 433.1365349 331.763923 423.1336595 361.5503495 473.8979725"/>
          </g>
        </g>
        <g>
          <path class="st2" d="M128.9868435,706.1981834c-39.4870829,94.6064946-148.1914008,139.2895948-242.7978954,99.8025119-94.6064946-39.4870829-139.2896113-148.1913941-99.8025284-242.7978887,39.4870829-94.6064946,148.1914057-139.2896064,242.7979003-99.8025235s139.2896064,148.1914057,99.8025235,242.7979003ZM64.2734301,679.1879455c24.5697421-58.8662672-3.2330924-126.5045118-62.099348-151.0742491-58.8662556-24.5697372-126.504507,3.2330808-151.0742491,62.099348-24.5697421,58.8662672,3.2330973,126.5045002,62.0993528,151.0742374,58.8662556,24.5697372,126.5045021-3.2330692,151.0742442-62.0993364Z"/>
          <g id="Inner21" data-name="Inner">
            <path class="st2" d="M-52.8603904,713.174136c-43.3397921-5.8249554-73.7515765-45.6808791-67.926621-89.0206711,5.8249554-43.3397921,45.6808558-73.7515862,89.0206595-67.9266259,43.3398037,5.8249603,73.751593,45.6808723,67.9266375,89.0206644-5.8249603,43.3398037-45.6808839,73.7515881-89.020676,67.9266327ZM-13.7031854,638.5457654c2.1236884-15.8009764-8.9639512-30.3317766-24.7649044-32.4554553-15.8009764-2.1236884-30.331767,8.963928-32.4554553,24.7649044-2.1236884,15.8009764,8.9639512,30.3317766,24.7649044,32.4554553,15.8009764,2.1236884,30.3317766-8.9639512,32.4554553-24.7649044Z"/>
          </g>
          <g id="Teeth22" data-name="Teeth">
            <polygon class="st2" points="57.7652759 507.3700311 -22.174823 474.0044432 7.8854684 423.4018192 41.6277892 433.5871665 72.5988818 450.412057 57.7652759 507.3700311"/>
            <polygon class="st2" points="57.7652759 507.3700311 -22.174823 474.0044432 7.8854684 423.4018192 41.6277892 433.5871665 72.5988818 450.412057 57.7652759 507.3700311"/>
            <polygon class="st2" points="85.0170921 734.779131 118.38268 654.8390321 168.9853041 684.8993236 158.7999567 718.6416444 141.9750662 749.6127369 85.0170921 734.779131"/>
            <polygon class="st2" points="118.4891507 615.4305451 85.5559982 535.3113256 142.5932927 520.7857029 159.2505883 551.847255 169.2534638 585.6441187 118.4891507 615.4305451"/>
            <polygon class="st2" points="-23.0434219 795.5030058 57.0757976 762.5698533 71.6014203 819.6071478 40.5398682 836.2644435 6.7430045 846.2673189 -23.0434219 795.5030058"/>
          </g>
        </g>
        <g>
          <path class="st2" d="M2413.9086046,283.0645239c-39.4870829,94.6064946-148.1914008,139.2895948-242.7978954,99.8025119-94.6064946-39.4870829-139.2896113-148.1913941-99.8025284-242.7978887,39.4870829-94.6064946,148.1914057-139.2896064,242.7979003-99.8025235s139.2896064,148.1914057,99.8025235,242.7979003ZM2349.1951912,256.0542861c24.5697421-58.8662672-3.2330924-126.5045118-62.099348-151.0742491-58.8662556-24.5697372-126.504507,3.2330808-151.0742491,62.099348s3.2330973,126.5045002,62.0993528,151.0742374c58.8662556,24.5697372,126.5045021-3.2330692,151.0742442-62.0993364Z"/>
          <g id="Teeth23" data-name="Teeth">
            <polygon class="st2" points="2115.277937 111.4881879 2081.9123491 191.4282868 2031.3097251 161.3679953 2041.4950724 127.6256745 2058.3199629 96.654582 2115.277937 111.4881879"/>
            <polygon class="st2" points="2081.8058784 230.8367738 2114.739031 310.9559933 2057.7017365 325.481616 2041.0444408 294.4200639 2031.0415654 260.6232002 2081.8058784 230.8367738"/>
          </g>
        </g>
        <g>
          <path class="st2" d="M1990.7749451,283.0645239c-39.4870829,94.6064946-148.1914008,139.2895948-242.7978954,99.8025119-94.6064946-39.4870829-139.2896113-148.1913941-99.8025284-242.7978887,39.4870829-94.6064946,148.1914057-139.2896064,242.7979003-99.8025235s139.2896064,148.1914057,99.8025235,242.7979003ZM1926.0615317,256.0542861c24.5697421-58.8662672-3.2330924-126.5045118-62.099348-151.0742491-58.8662556-24.5697372-126.504507,3.2330808-151.0742491,62.099348s3.2330973,126.5045002,62.0993528,151.0742374c58.8662556,24.5697372,126.5045021-3.2330692,151.0742442-62.0993364Z"/>
          <g id="Inner22" data-name="Inner">
            <path class="st2" d="M1808.9277112,290.0404766c-43.3397921-5.8249554-73.7515765-45.6808791-67.926621-89.0206711,5.8249554-43.3397921,45.6808558-73.7515862,89.0206595-67.9266259,43.3398037,5.8249603,73.751593,45.6808723,67.9266375,89.0206644-5.8249603,43.3398037-45.6808839,73.7515881-89.020676,67.9266327ZM1848.0849161,215.4121059c2.1236884-15.8009764-8.9639512-30.3317766-24.7649044-32.4554553-15.8009764-2.1236884-30.331767,8.963928-32.4554553,24.7649044-2.1236884,15.8009764,8.9639512,30.3317766,24.7649044,32.4554553,15.8009764,2.1236884,30.3317766-8.9639512,32.4554553-24.7649044Z"/>
          </g>
          <g id="Teeth24" data-name="Teeth">
            <polygon class="st2" points="1919.5533775 84.2363717 1839.6132786 50.8707838 1869.67357 .2681597 1903.4158908 10.4535071 1934.3869834 27.2783975 1919.5533775 84.2363717"/>
            <polygon class="st2" points="1919.5533775 84.2363717 1839.6132786 50.8707838 1869.67357 .2681597 1903.4158908 10.4535071 1934.3869834 27.2783975 1919.5533775 84.2363717"/>
            <polygon class="st2" points="1946.8051937 311.6454716 1980.1707816 231.7053727 2030.7734057 261.7656641 2020.5880583 295.5079849 2003.7631678 326.4790775 1946.8051937 311.6454716"/>
            <polygon class="st2" points="1719.3960938 338.8972878 1799.3361927 372.2628757 1769.2759013 422.8654997 1735.5335805 412.6801524 1704.5624879 395.8552619 1719.3960938 338.8972878"/>
            <polygon class="st2" points="1692.1442776 111.4881879 1658.7786897 191.4282868 1608.1760656 161.3679953 1618.361413 127.6256745 1635.1863035 96.654582 1692.1442776 111.4881879"/>
            <polygon class="st2" points="1980.2772523 192.2968857 1947.3440997 112.1776662 2004.3813943 97.6520435 2021.0386899 128.7135955 2031.0415654 162.5104593 1980.2772523 192.2968857"/>
            <polygon class="st2" points="1838.7446797 372.3693464 1918.8638992 339.4361938 1933.3895219 396.4734883 1902.3279698 413.130784 1868.5311061 423.1336595 1838.7446797 372.3693464"/>
            <polygon class="st2" points="1658.672219 230.8367738 1691.6053715 310.9559933 1634.568077 325.481616 1617.9107814 294.4200639 1607.9079059 260.6232002 1658.672219 230.8367738"/>
            <polygon class="st2" points="1800.2047916 50.7643131 1720.0855721 83.6974656 1705.5599494 26.6601711 1736.6215015 10.0028754 1770.4183652 0 1800.2047916 50.7643131"/>
          </g>
        </g>
        <g>
          <path class="st2" d="M1567.6412857,283.0645239c-39.4870829,94.6064946-148.1914008,139.2895948-242.7978954,99.8025119-94.6064946-39.4870829-139.2896113-148.1913941-99.8025284-242.7978887,39.4870829-94.6064946,148.1914057-139.2896064,242.7979003-99.8025235s139.2896064,148.1914057,99.8025235,242.7979003ZM1502.9278723,256.0542861c24.5697421-58.8662672-3.2330924-126.5045118-62.099348-151.0742491-58.8662556-24.5697372-126.504507,3.2330808-151.0742491,62.099348s3.2330973,126.5045002,62.0993528,151.0742374c58.8662556,24.5697372,126.5045021-3.2330692,151.0742442-62.0993364Z"/>
          <g id="Inner23" data-name="Inner">
            <path class="st2" d="M1385.7940518,290.0404766c-43.3397921-5.8249554-73.7515765-45.6808791-67.926621-89.0206711,5.8249554-43.3397921,45.6808558-73.7515862,89.0206595-67.9266259,43.3398037,5.8249603,73.751593,45.6808723,67.9266375,89.0206644-5.8249603,43.3398037-45.6808839,73.7515881-89.020676,67.9266327ZM1424.9512567,215.4121059c2.1236884-15.8009764-8.9639512-30.3317766-24.7649044-32.4554553-15.8009764-2.1236884-30.331767,8.963928-32.4554553,24.7649044-2.1236884,15.8009764,8.9639512,30.3317766,24.7649044,32.4554553,15.8009764,2.1236884,30.3317766-8.9639512,32.4554553-24.7649044Z"/>
          </g>
          <g id="Teeth25" data-name="Teeth">
            <polygon class="st2" points="1496.419718 84.2363717 1416.4796191 50.8707838 1446.5399106 .2681597 1480.2822314 10.4535071 1511.2533239 27.2783975 1496.419718 84.2363717"/>
            <polygon class="st2" points="1496.419718 84.2363717 1416.4796191 50.8707838 1446.5399106 .2681597 1480.2822314 10.4535071 1511.2533239 27.2783975 1496.419718 84.2363717"/>
            <polygon class="st2" points="1523.6715342 311.6454716 1557.0371222 231.7053727 1607.6397462 261.7656641 1597.4543988 295.5079849 1580.6295084 326.4790775 1523.6715342 311.6454716"/>
            <polygon class="st2" points="1296.2624344 338.8972878 1376.2025332 372.2628757 1346.1422418 422.8654997 1312.399921 412.6801524 1281.4288284 395.8552619 1296.2624344 338.8972878"/>
            <polygon class="st2" points="1269.0106181 111.4881879 1235.6450302 191.4282868 1185.0424062 161.3679953 1195.2277535 127.6256745 1212.052644 96.654582 1269.0106181 111.4881879"/>
            <polygon class="st2" points="1557.1435928 192.2968857 1524.2104403 112.1776662 1581.2477348 97.6520435 1597.9050305 128.7135955 1607.9079059 162.5104593 1557.1435928 192.2968857"/>
            <polygon class="st2" points="1415.6110202 372.3693464 1495.7302397 339.4361938 1510.2558624 396.4734883 1479.1943104 413.130784 1445.3974467 423.1336595 1415.6110202 372.3693464"/>
            <polygon class="st2" points="1235.5385595 230.8367738 1268.4717121 310.9559933 1211.4344176 325.481616 1194.7771219 294.4200639 1184.7742465 260.6232002 1235.5385595 230.8367738"/>
            <polygon class="st2" points="1377.0711321 50.7643131 1296.9519127 83.6974656 1282.42629 26.6601711 1313.487842 10.0028754 1347.2847057 0 1377.0711321 50.7643131"/>
          </g>
        </g>
        <g>
          <path class="st2" d="M1144.5076262,283.0645239c-39.4870829,94.6064946-148.1914008,139.2895948-242.7978954,99.8025119-94.6064946-39.4870829-139.2896113-148.1913941-99.8025284-242.7978887C841.3942853,45.4626526,950.0986081.7795407,1044.7051027,40.2666236c94.6064946,39.4870829,139.2896064,148.1914057,99.8025235,242.7979003ZM1079.7942128,256.0542861c24.5697421-58.8662672-3.2330924-126.5045118-62.099348-151.0742491s-126.504507,3.2330808-151.0742491,62.099348c-24.5697421,58.8662672,3.2330973,126.5045002,62.0993528,151.0742374,58.8662556,24.5697372,126.5045021-3.2330692,151.0742442-62.0993364Z"/>
          <g id="Inner24" data-name="Inner">
            <path class="st2" d="M962.6603923,290.0404766c-43.3397921-5.8249554-73.7515765-45.6808791-67.926621-89.0206711,5.8249554-43.3397921,45.6808558-73.7515862,89.0206595-67.9266259,43.3398037,5.8249603,73.751593,45.6808723,67.9266375,89.0206644-5.8249603,43.3398037-45.6808839,73.7515881-89.020676,67.9266327ZM1001.8175972,215.4121059c2.1236884-15.8009764-8.9639512-30.3317766-24.7649044-32.4554553-15.8009764-2.1236884-30.331767,8.963928-32.4554553,24.7649044-2.1236884,15.8009764,8.9639512,30.3317766,24.7649044,32.4554553,15.8009764,2.1236884,30.3317766-8.9639512,32.4554553-24.7649044Z"/>
          </g>
          <g id="Teeth26" data-name="Teeth">
            <polygon class="st2" points="1073.2860586 84.2363717 993.3459597 50.8707838 1023.4062511 .2681597 1057.1485719 10.4535071 1088.1196645 27.2783975 1073.2860586 84.2363717"/>
            <polygon class="st2" points="1073.2860586 84.2363717 993.3459597 50.8707838 1023.4062511 .2681597 1057.1485719 10.4535071 1088.1196645 27.2783975 1073.2860586 84.2363717"/>
            <polygon class="st2" points="1100.5378748 311.6454716 1133.9034627 231.7053727 1184.5060868 261.7656641 1174.3207394 295.5079849 1157.4958489 326.4790775 1100.5378748 311.6454716"/>
            <polygon class="st2" points="873.1287749 338.8972878 953.0688738 372.2628757 923.0085824 422.8654997 889.2662616 412.6801524 858.295169 395.8552619 873.1287749 338.8972878"/>
            <polygon class="st2" points="845.8769587 111.4881879 812.5113708 191.4282868 761.9087467 161.3679953 772.0940941 127.6256745 788.9189846 96.654582 845.8769587 111.4881879"/>
            <polygon class="st2" points="1134.0099334 192.2968857 1101.0767808 112.1776662 1158.1140754 97.6520435 1174.771371 128.7135955 1184.7742465 162.5104593 1134.0099334 192.2968857"/>
            <polygon class="st2" points="992.4773608 372.3693464 1072.5965803 339.4361938 1087.122203 396.4734883 1056.0606509 413.130784 1022.2637872 423.1336595 992.4773608 372.3693464"/>
            <polygon class="st2" points="812.4049001 230.8367738 845.3380526 310.9559933 788.3007581 325.481616 771.6434625 294.4200639 761.640587 260.6232002 812.4049001 230.8367738"/>
            <polygon class="st2" points="953.9374727 50.7643131 873.8182532 83.6974656 859.2926305 26.6601711 890.3541826 10.0028754 924.1510463 0 953.9374727 50.7643131"/>
          </g>
        </g>
        <g>
          <path class="st2" d="M721.3739668,283.0645239c-39.4870829,94.6064946-148.1914008,139.2895948-242.7978954,99.8025119-94.6064946-39.4870829-139.2896113-148.1913941-99.8025284-242.7978887C418.2606259,45.4626526,526.9649486.7795407,621.5714432,40.2666236s139.2896064,148.1914057,99.8025235,242.7979003ZM656.6605534,256.0542861c24.5697421-58.8662672-3.2330924-126.5045118-62.099348-151.0742491-58.8662556-24.5697372-126.504507,3.2330808-151.0742491,62.099348-24.5697421,58.8662672,3.2330973,126.5045002,62.0993528,151.0742374,58.8662556,24.5697372,126.5045021-3.2330692,151.0742442-62.0993364Z"/>
          <g id="Inner25" data-name="Inner">
            <path class="st2" d="M539.5267329,290.0404766c-43.3397921-5.8249554-73.7515765-45.6808791-67.926621-89.0206711,5.8249554-43.3397921,45.6808558-73.7515862,89.0206595-67.9266259,43.3398037,5.8249603,73.751593,45.6808723,67.9266375,89.0206644-5.8249603,43.3398037-45.6808839,73.7515881-89.020676,67.9266327ZM578.6839378,215.4121059c2.1236884-15.8009764-8.9639512-30.3317766-24.7649044-32.4554553-15.8009764-2.1236884-30.331767,8.963928-32.4554553,24.7649044-2.1236884,15.8009764,8.9639512,30.3317766,24.7649044,32.4554553,15.8009764,2.1236884,30.3317766-8.9639512,32.4554553-24.7649044Z"/>
          </g>
          <g id="Teeth27" data-name="Teeth">
            <polygon class="st2" points="650.1523991 84.2363717 570.2123002 50.8707838 600.2725917 .2681597 634.0149125 10.4535071 664.986005 27.2783975 650.1523991 84.2363717"/>
            <polygon class="st2" points="650.1523991 84.2363717 570.2123002 50.8707838 600.2725917 .2681597 634.0149125 10.4535071 664.986005 27.2783975 650.1523991 84.2363717"/>
            <polygon class="st2" points="677.4042153 311.6454716 710.7698033 231.7053727 761.3724273 261.7656641 751.1870799 295.5079849 734.3621895 326.4790775 677.4042153 311.6454716"/>
            <polygon class="st2" points="449.9951154 338.8972878 529.9352143 372.2628757 499.8749229 422.8654997 466.1326021 412.6801524 435.1615095 395.8552619 449.9951154 338.8972878"/>
            <polygon class="st2" points="422.7432992 111.4881879 389.3777113 191.4282868 338.7750873 161.3679953 348.9604346 127.6256745 365.7853251 96.654582 422.7432992 111.4881879"/>
            <polygon class="st2" points="710.8762739 192.2968857 677.9431214 112.1776662 734.9804159 97.6520435 751.6377116 128.7135955 761.640587 162.5104593 710.8762739 192.2968857"/>
            <polygon class="st2" points="569.3437013 372.3693464 649.4629208 339.4361938 663.9885435 396.4734883 632.9269915 413.130784 599.1301278 423.1336595 569.3437013 372.3693464"/>
            <polygon class="st2" points="389.2712406 230.8367738 422.2043932 310.9559933 365.1670987 325.481616 348.509803 294.4200639 338.5069276 260.6232002 389.2712406 230.8367738"/>
            <polygon class="st2" points="530.8038132 50.7643131 450.6845938 83.6974656 436.1589711 26.6601711 467.2205231 10.0028754 501.0173868 0 530.8038132 50.7643131"/>
          </g>
        </g>
        <g>
          <path class="st2" d="M298.2403073,283.0645239c-39.4870829,94.6064946-148.1914008,139.2895948-242.7978954,99.8025119-94.6064946-39.4870829-139.2896113-148.1913941-99.8025284-242.7978887C-4.8730336,45.4626526,103.8312892.7795407,198.4377838,40.2666236s139.2896064,148.1914057,99.8025235,242.7979003ZM233.5268939,256.0542861c24.5697421-58.8662672-3.2330924-126.5045118-62.099348-151.0742491-58.8662556-24.5697372-126.504507,3.2330808-151.0742491,62.099348-24.5697421,58.8662672,3.2330973,126.5045002,62.0993528,151.0742374,58.8662556,24.5697372,126.5045021-3.2330692,151.0742442-62.0993364Z"/>
          <g id="Inner26" data-name="Inner">
            <path class="st2" d="M116.3930734,290.0404766c-43.3397921-5.8249554-73.7515765-45.6808791-67.926621-89.0206711,5.8249554-43.3397921,45.6808558-73.7515862,89.0206595-67.9266259,43.3398037,5.8249603,73.751593,45.6808723,67.9266375,89.0206644-5.8249603,43.3398037-45.6808839,73.7515881-89.020676,67.9266327ZM155.5502783,215.4121059c2.1236884-15.8009764-8.9639512-30.3317766-24.7649044-32.4554553-15.8009764-2.1236884-30.331767,8.963928-32.4554553,24.7649044-2.1236884,15.8009764,8.9639512,30.3317766,24.7649044,32.4554553,15.8009764,2.1236884,30.3317766-8.9639512,32.4554553-24.7649044Z"/>
          </g>
          <g id="Teeth28" data-name="Teeth">
            <polygon class="st2" points="227.0187397 84.2363717 147.0786408 50.8707838 177.1389322 .2681597 210.881253 10.4535071 241.8523456 27.2783975 227.0187397 84.2363717"/>
            <polygon class="st2" points="227.0187397 84.2363717 147.0786408 50.8707838 177.1389322 .2681597 210.881253 10.4535071 241.8523456 27.2783975 227.0187397 84.2363717"/>
            <polygon class="st2" points="254.2705559 311.6454716 287.6361438 231.7053727 338.2387679 261.7656641 328.0534205 295.5079849 311.22853 326.4790775 254.2705559 311.6454716"/>
            <polygon class="st2" points="26.861456 338.8972878 106.8015549 372.2628757 76.7412635 422.8654997 42.9989427 412.6801524 12.0278501 395.8552619 26.861456 338.8972878"/>
            <polygon class="st2" points="287.7426145 192.2968857 254.8094619 112.1776662 311.8467565 97.6520435 328.5040521 128.7135955 338.5069276 162.5104593 287.7426145 192.2968857"/>
            <polygon class="st2" points="146.2100419 372.3693464 226.3292614 339.4361938 240.8548841 396.4734883 209.793332 413.130784 175.9964683 423.1336595 146.2100419 372.3693464"/>
            <polygon class="st2" points="107.6701538 50.7643131 27.5509343 83.6974656 13.0253116 26.6601711 44.0868637 10.0028754 77.8837274 0 107.6701538 50.7643131"/>
          </g>
        </g>
      </g>
    </pattern>
  </defs>
  <rect class="st3" y="-.0000001" width="2040" height="2040.0000003"/>
  <rect class="st0" width="2040" height="2040"/>
</svg>