<?xml version="1.0" encoding="UTF-8"?>
<svg id="Layer_1" xmlns="http://www.w3.org/2000/svg" version="1.1" viewBox="0 0 4396 2160">
  <!-- Generator: Adobe Illustrator 29.8.4, SVG Export Plug-In . SVG Version: 2.1.1 Build 6)  -->
  <defs>
    <style>
      .st0 {
        fill: #c1272d;
      }
    </style>
  </defs>
  <path class="st0" d="M3382.1542969,640.0126953c39.3830566-36.1899414,59.074707-83.0241699,59.074707-140.5023193V203.3479004c0-46.302002-13.8371582-86.7495117-41.5119629-121.3430176-33.548584-41.5119629-76.3813477-62.2680664-128.5375977-62.2680664h-615.4858398v743.4112549L2345.3928223,30.7714844h-444.6079102l-436.6936035,1049.6740723c-.0002441.4716797-.0076904.9423828-.0097656,1.4138184.142334-33.4199219-4.0998535-67.4101562-13.1660156-101.2458496-54.8896484-204.8510742-265.4510498-326.4187012-470.302063-271.5290527s-326.4186401,265.4510498-271.5289917,470.302002c16.2807617,60.7606201,46.2576294,114.1936035,85.7182007,157.8688965l238.8508911,341.1143799c-246.5725708-19.0979614-465.5591431-190.6054077-533.2090454-443.0783691-85.7650757-320.0797119,104.1843872-649.0817871,424.2640381-734.8468018,2.5903931-.6940918,5.1813965-1.3685303,7.7728271-2.0266113.8589478-.2180176,1.7183228-.4240723,2.5772705-.6383057,1.7338257-.432251,3.4676514-.8648682,5.2017822-1.2811279,1.024353-.2458496,2.0488892-.4797363,3.0732422-.7199707,1.569519-.3681641,3.1391602-.7374268,4.7088013-1.0924072,1.0915527-.2469482,2.1833496-.4831543,3.2749634-.7237549,1.5047607-.331543,3.0092163-.6633301,4.513916-.9829102,1.1244507-.2388916,2.2485352-.4685059,3.3728027-.7006836,1.4731445-.3041992,2.9460449-.6071777,4.4191284-.8999023,1.1427612-.2270508,2.2854614-.4468994,3.4281616-.6671143,1.4550171-.2803955,2.9098511-.5581055,4.3648071-.8275146,1.151001-.2130127,2.3018799-.4204102,3.4528198-.626709,1.453064-.2602539,2.906311-.5161133,4.3591919-.7653809,1.1442871-.1964111,2.2885132-.388916,3.4327393-.5783691,1.4624634-.2423096,2.9248047-.4785156,4.3869629-.7097168,1.1338501-.1791992,2.2675171-.3563232,3.401123-.5288086,1.479187-.2250977,2.9580688-.442627,4.4368896-.6563721,1.1132202-.1608887,2.2262573-.3216553,3.3391724-.4761963,1.5087891-.2094727,3.0170898-.4094238,4.5255737-.6071777,1.0814819-.1418457,2.1629639-.2852783,3.2441406-.4211426,1.5550537-.1950684,3.1097412-.3791504,4.6642456-.5618896,1.0335693-.12146,2.0673828-.2467041,3.100647-.362793,1.6407471-.1842041,3.2807617-.3553467,4.9209595-.5257568.9435425-.0981445,1.8876343-.2016602,2.8308716-.295166,1.8222046-.1806641,3.6431885-.3459473,5.4643555-.5097656.760498-.0683594,1.5214844-.1435547,2.2818604-.2088623,2.4073486-.2071533,4.8135986-.3980713,7.2188721-.5758057.171875-.0126953.3441162-.0280762.5162354-.0406494,2.6378174-.1925049,5.274292-.3670654,7.9091797-.5240479.2003174-.0119629.4003906-.0206299.6005859-.0323486,2.3839111-.1397705,4.7667236-.2667236,7.1478271-.3775635.664917-.0310059,1.3292236-.0534668,1.9938965-.0822754,1.9160156-.0827637,3.831665-.1621094,5.7456055-.2263184.8215332-.0275879,1.6422119-.0466309,2.4633789-.0708008,1.7597656-.0517578,3.519165-.1013184,5.2770996-.1374512.8868408-.0181885,1.7729492-.0288086,2.6593018-.0430908,1.6920166-.0272217,3.383667-.0516357,5.0739746-.0645752.9208984-.0068359,1.8410645-.0075684,2.7615967-.0102539,1.6586914-.0048828,3.3167725-.0058594,4.9737549.0031738.9298096.0048828,1.8588867.0147705,2.7879639.0241699,1.6525879.0166016,3.3043213.0385742,4.954834.0690918.9217529.0169678,1.8431396.0371094,2.7644043.0583496,1.6629639.0383301,3.3249512.083374,4.9859619.1357422.901001.0283203,1.8017578.0581055,2.7021484.0905762,1.6884766.060791,3.3754883.1298828,5.0617676.2050781.8688965.0385742,1.7376709.0771484,2.605835.1196289,1.7336426.0848389,3.465332.1795654,5.1964111.2794189.8138428.0469971,1.6278076.0922852,2.44104.1425781,1.8173828.1123047,3.6324463.2362061,5.4468994.3651123.7210693.0512695,1.442749.0993652,2.1634521.1531982,1.9526367.145874,3.90271.3050537,5.8516846.4698486.5825195.0493164,1.1657715.0944824,1.7479248.1455078,2.2139893.1938477,4.425293.4024658,6.6345215.6208496.3120117.0308838.6245117.0583496.9362793.0895996,10.3236084,1.0371094,20.5939941,2.3416748,30.8027344,3.9077148.1651611.0253906.3297119.0527344.494751.078125,2.3446045.3616943,4.6861572.7365723,7.0240479,1.1258545.3773193.0628662.7537842.1292725,1.1309814.192749,2.1320801.3592529,4.2618408.7276611,6.3883057,1.1096191.4705811.0847168.9403076.1728516,1.4107666.2585449,2.0356445.3707275,4.0689697.7498779,6.0991211,1.1414795.5168457.0996094,1.0327148.2022705,1.5491943.3032227,1.987793.388916,3.9733887.786377,5.9558105,1.1951904.5314941.1096191,1.0626221.2211914,1.59375.3321533,1.9754639.4129639,3.9484863.8353271,5.9185791,1.2679443.519043.1140137,1.0379639.2288818,1.5567627.3442383,1.9956055.4438477,3.9882812.8981934,5.9780273,1.3623047.4798584.1118164.9598389.2233887,1.4394531.3365479,2.0466309.4825439,4.0895996.9768066,6.1298828,1.4805908.4146729.1025391.8297119.2036133,1.2441406.3070068,2.1422119.5338135,4.2802734,1.0804443,6.4151611,1.6376953.3033447.0792236.6071777.1567383.9105225.2364502,2.3078613.6062012,4.6115723,1.2261963,6.9106445,1.8596191.1264648.0349121.2532959.0686035.3797607.1035156,19.8466797,5.4814453,39.3575439,11.97229,58.4606934,19.4265137.0780029.0305176.1556396.0615234.2336426.0917969,2.2879639.894043,4.5700684,1.802002,6.8461914,2.7236328.1363525.0551758.2723389.1108398.4084473.1660156,2.2264404.9033203,4.4470215,1.8198242,6.6618652,2.7493896.1567383.0657959.3134766.131958.4702148.197876,2.2099609.9298096,4.4141846,1.8726807,6.6125488,2.8286133.1387939.0603027.2775879.1206055.4163818.1810303,2.2369385.9747314,4.4675293,1.9626465,6.6920166,2.9642334.0872803.0393066.1749268.0783691.2623291.1176758,28.0537109,12.6474609,55.0976562,27.423584,80.8813477,44.1833496l-.0040283-.0151367,249.4051514-143.6722412,30.7553711-17.7169189,61.4840088-150.4006348-144.2988281-93.7033691-153.2989502-78.1149902-99.5140381,128.4541016c-99.2565918-31.5290527-204.7102051-46.0782471-312.0517578-41.1577148l-62.8434448-149.753418-168.2929688,35.7763672-163.6342773,53.1633301,20.4529419,161.1137695c-95.4210815,49.4094238-179.475708,114.732666-249.6704712,191.6658936l-150.4043579-61.4855957-93.7033081,144.2989502-78.1148682,153.2988281,128.4502563,99.5112305c-31.5286865,99.2570801-46.0731201,204.7121582-41.1523438,312.0539551l-149.7550659,62.8441162,35.7764893,168.2930908,53.163147,163.6341553,161.1137695-20.4528809c49.4094238,95.4211426,114.7327271,179.475708,191.6658936,249.6704712l-61.4855347,150.4043579,144.2988892,93.7033691,153.2988892,78.1147461,99.5111694-128.4501343c99.257019,31.5286255,204.7121582,46.072998,312.0539551,41.1522827l62.8441162,149.755127,168.2930908-35.7766113,163.6341553-53.1630859-20.4554443-161.133728c95.4160156-49.4084473,179.4682617-114.7216187,249.659668-191.6514282l150.4177246,61.4909668,93.7033691-144.2988281,78.1147461-153.2989502-128.4470215-99.5087891v.0001221h-.0039062l-8.7375488.0097046-128.7644043.1430054v.000061l-185.838501.2064819-.0021973-.0084229.0023193.0083008,75.8320312-.0842285,295.2512207-707.267334v-301.1149902l6.6730957-48.380249,50.8929443-2.5126953,51.7169189,2.5126953,6.6730957,48.380249c30.5644531,6.6730957,59.4814453,18.6394043,86.7507324,35.8577881l38.3706055-29.1846924,38.3703613,34.1895752,34.1896973,37.5467529-29.1848145,39.1943359c16.6828613,26.6925049,28.6286621,55.609375,35.857666,86.7507324l48.3803711,6.6730957,2.5126953,50.8930664-2.5126953,51.7167969-48.3803711,6.6730957c-6.6728516,30.5852051-18.6394043,59.5020752-35.857666,86.7507324l29.1848145,38.3704834-34.1896973,38.3704834-38.3703613,34.1895752-35.878418-27.5163574h-5.8288574c-25.5803223,16.126709-53.3850098,27.5163574-83.4140625,34.1895752l-6.6730957,48.380127-50.8930664,2.5126953-51.7167969-2.5126953h-6.6730957v139.3114014h669.8261719v-.0003662h264.2302246l-4.7897949-873.3493652,35.9335938-17.5627441,22.3527832,30.3356934c18.6074219-5.854248,38.0427246-8.7912598,58.2666016-8.7912598,4.2575684,0,8.7714844.276001,13.5810547.8081055l15.157959-34.3370361,38.3188477,8.7912598,37.5305176,13.5614014-5.5981445,36.722168c21.2883301,11.7084961,40.1716309,26.8862305,56.6896973,45.5134277l35.1257324-13.5810547,20.7558594,33.5288086,17.5627441,35.9338379-30.3356934,22.3525391c5.8347168,19.1594238,8.7717285,38.5948486,8.7717285,58.2667236,0,4.2576904-.276123,8.7912598-.7885742,13.5811768l34.3173828,15.9660645-8.7714844,38.3188477-13.5810547,37.5106201-36.722168-5.5782471c-11.7084961,21.2880859-26.8862305,40.1914062-45.4938965,56.6699219l13.5615234,35.1256104-33.5290527,20.7559814-35.9140625,17.5628662-22.3525391-30.3358154c-20.223877,5.3221436-40.9797363,7.9831543-62.2680664,7.9831543h-10.3879395l184.4191895,454.2473145h304.1455078l-179.609375-381.5913086c20.223877-7.4509277,38.8510742-18.8835449,55.8815918-34.3371582ZM944.7703857,1116.2346191c-20.0118408-74.6853027,24.3096924-151.4523926,98.9949951-171.4642334,74.6851807-20.0118408,151.4523926,24.3096924,171.4642334,98.9949951,20.0118408,74.6851807-24.3096924,151.4523926-98.9949951,171.4642334-74.6851807,20.0118408-151.4523926-24.3096924-171.4642334-98.9949951ZM1496.4206543,1512.1049805c-.3115234.3007812-.6246338.6002197-.9368896.9003906-1.5112305,1.4527588-3.0299072,2.8985596-4.557373,4.3363037-.3603516.3392334-.7216797.6773682-1.0830078,1.0157471-1.4910889,1.3964844-2.989502,2.7858887-4.4956055,4.1678467-.3900146.3577881-.7803955.71521-1.1712646,1.0721436-1.4898682,1.3597412-2.9875488,2.7119141-4.4921875,4.057373-.4053955.3626709-.8104248.7255859-1.217041,1.0871582-1.5125732,1.3452148-3.0333252,2.682251-4.5605469,4.0128174-.3956299.3448486-.7901611.6906738-1.1867676,1.0345459-1.5638428,1.3552246-3.1365967,2.701416-4.7155762,4.0415039-.3630371.3081055-.7243652.618042-1.0883789.925293-1.6561279,1.3988037-3.3221436,2.7875977-4.9949951,4.1693115-.2878418.237793-.5737305.4780273-.8623047.715332-1.8431396,1.5168457-3.6965332,3.0228271-5.5595703,4.5186768-.1169434.0939941-.2327881.189209-.3497314.282959-8.057373,6.4598389-16.2990723,12.7241211-24.7203369,18.7832031-.2661133.1914062-.5349121.3796387-.8012695.5709229-1.7929688,1.2854004-3.592041,2.5635986-5.401123,3.8304443-.4829102.3381348-.9697266.6717529-1.4536133,1.008667-1.6002197,1.1135254-3.2039795,2.2225342-4.8166504,3.3214111-.6022949.4104004-1.208252.8161621-1.8122559,1.2246094-1.5026855,1.0157471-3.0083008,2.02771-4.5217285,3.0307617-.6800537.4509277-1.3634033.8978271-2.0456543,1.3459473-1.4483643.9512939-2.8997803,1.8985596-4.357666,2.8382568-.730957.4710693-1.4643555.9390869-2.1977539,1.4071045-1.4226074.907959-2.848877,1.8110352-4.2805176,2.7077637-.7635498.4781494-1.5285645.9545898-2.2946777,1.4295654-1.4111328.875-2.8265381,1.7440186-4.2462158,2.6079102-.7889404.4801025-1.5784912.9593506-2.3699951,1.4359131-1.4146729.8519287-2.8345947,1.6970215-4.2578125,2.5378418-.7976074.4713135-1.5949707.9429932-2.3952637,1.4106445-1.4321289.8372803-2.8706055,1.6665039-4.3112793,2.4926758-.7978516.4575195-1.5942383.916626-2.3945312,1.3706055-1.4678955.8326416-2.942749,1.6557617-4.4191895,2.4769287-.7780762.4326172-1.553833.8682861-2.3342285,1.2976074-1.5400391.8474121-3.0878906,1.6838379-4.6373291,2.5184326-.7224121.3892822-1.4417725.7828369-2.1661377,1.1691895-1.6883545.9007568-3.3857422,1.7888184-5.085083,2.6745605-.5924072.3085938-1.1809082.6224365-1.7746582.9293213-2.130127,1.1008301-4.2696533,2.1887207-6.416748,3.2658691-.1657715.0831299-.3299561.1687012-.4957275.2518311-2.3587646,1.180542-4.7277832,2.3466797-7.1069336,3.4981689-.1922607.0928955-.3864746.1831055-.5789795.2758789-2.1362305,1.03125-4.2797852,2.052124-6.432251,3.0595703-.6925049.3243408-1.390625.6403809-2.0849609.9620361-1.6568604.7678223-3.3143311,1.5341797-4.9807129,2.2877197-.8642578.3908691-1.7341309.7735596-2.6009521,1.1606445-1.5061035.6726074-3.0124512,1.3446045-4.526123,2.0058594-.9499512.4146729-1.9047852.8220215-2.8575439,1.2321777-1.4394531.6196289-2.8792725,1.2382812-4.3253174,1.8474121-1.0058594.4237061-2.0159912.8410645-3.0252686,1.2595215-1.4019775.581665-2.8048096,1.161377-4.2131348,1.7330322-1.0445557.4240723-2.0922852.8426514-3.1402588,1.2612305-1.385376.5534668-2.7727051,1.1037598-4.1639404,1.647583-1.0682373.4173584-2.1390381.8309326-3.2108154,1.2426758-1.3800049.5302734-2.7625732,1.0560303-4.1483154,1.5769043-1.0882568.4088135-2.1781006.8153076-3.2697754,1.2183838-1.3833008.5106201-2.7698975,1.015625-4.1586914,1.5167236-1.0968018.395874-2.1942139.7905273-3.2945557,1.1804199-1.3961182.494751-2.7966309.9822998-4.1984863,1.4675293-1.0999756.3806152-2.199707.7617188-3.3033447,1.1365967-1.4211426.4827881-2.84729.956543-4.2741699,1.4293213-1.0900879.361084-2.1787109.7244873-3.2720947,1.079834-1.4619141.4752197-2.9294434.9398193-4.3973389,1.4046631-1.0671387.3380127-2.1322021.6795654-3.2025146,1.0119629-1.5340576.4765625-3.0750732.9407959-4.6156006,1.4058838-1.0098877.3049316-2.0166016.6152344-3.0290527.9152832-1.7105713.5068359-3.428833.9991455-5.1469727,1.4918213-.8498535.2436523-1.6956787.4945068-2.5472412.7346191-2.5734863.7259521-5.1546631,1.4375-7.7452393,2.1317139-6.8658447,1.8396606-13.7358398,3.5430298-20.6072998,5.1304321l-107.1883545-153.0807495h389.4367676c-.1713867.1658936-.34021.3341064-.5118408.4997559ZM1614.7800293,1352.0368042c-.0024414.0049438-.005127.0098877-.0076904.0148315h-263.6783447c1.3276367-1.3253784,2.6416016-2.6628418,3.9486084-4.0065308-1.3060303,1.3427124-2.6190186,2.6793213-3.9456787,4.0037231l-.0012207.0026855h263.6766357c.0025635-.0048828.005249-.0098877.0076904-.0148926v.0001831ZM3888.7424316,834.059082c-20.5754395,0-44.1992188-5.8286133-70.8916016-17.5273438-37.8144531-17.2182617-56.7216797-36.4138184-56.7216797-57.5452881v-55.0533447c.5356445-16.6828613,13.8818359-32.8095703,40.0388184-48.380127,30.5644531-17.7949219,59.7697754-26.6925049,87.5744629-26.6925049h215.208252l113.4433594-15.8590088,4.1806641-70.067749-4.1806641-69.2232666-113.4433594-15.8591309h-215.208252c-21.1315918,0-44.7758789-5.8286133-70.8916016-17.5065918-37.8144531-17.2388916-56.7216797-36.4344482-56.7216797-57.565918v-55.0533447c.5356445-16.6827393,13.8818359-32.8094482,40.0388184-48.380127,30.5644531-17.7950439,59.7697754-26.6925049,87.5744629-26.6925049h369.5344238l101.7651367-221.8813477h-791.6096191l-62.550293,90.0871582v935.0825195h854.1599121l-101.7651367-221.8820801h-369.5344238Z"/>
</svg>