<?xml version="1.0" encoding="utf-8"?>
<!-- Generator: Adobe Illustrator 25.2.1, SVG Export Plug-In . SVG Version: 6.00 Build 0)  -->
<svg version="1.1" id="Layer_1" xmlns="http://www.w3.org/2000/svg" xmlns:xlink="http://www.w3.org/1999/xlink" x="0px" y="0px"
	 viewBox="0 0 4396 2160" style="enable-background:new 0 0 4396 2160;" xml:space="preserve">
<g id="Inner_2_">
	<polygon style="fill:#C1272D;" points="1800.5032959,1352.0516357 1061.9527588,1352.0516357 1061.9527588,1511.6052246 
		1708.3850098,1511.6052246 	"/>
	
		<rect x="917.024292" y="1167.1907959" transform="matrix(0.8191521 -0.5735765 0.5735765 0.8191521 -673.0567627 839.7180786)" style="fill:#C1272D;" width="156.140152" height="640"/>
	<g>
		<path style="fill:#C1272D;" d="M1450.9155273,980.6134644
			c-54.8896484-204.8509521-265.4510498-326.4186401-470.302063-271.5289917s-326.4186401,265.4510498-271.5289917,470.302002
			s265.4510498,326.4187012,470.302002,271.5290527S1505.8051758,1185.4644775,1450.9155273,980.6134644z
			 M1116.2346191,1215.2296143c-74.6851807,20.0118408-151.4523926-24.3096924-171.4642334-98.9949951
			s24.3096924-151.4523926,98.9949951-171.4642334c74.6851807-20.0118408,151.4523926,24.3096924,171.4642334,98.9949951
			C1235.2414551,1118.4505615,1190.9199219,1195.2177734,1116.2346191,1215.2296143z"/>
	</g>
</g>
<g id="Outer_2_">
	<g id="Spokes_3_">
		<polygon style="fill:#C1272D;" points="1086.1419678,291.5443726 680.453125,400.2483826 644.864563,119.9069595 
			808.4988403,66.7438049 976.7918091,30.9673233 		"/>
		<polygon style="fill:#C1272D;" points="1687.3148193,415.6433411 1748.7988281,265.2426758 1604.5,171.5393677 
			1451.2010498,93.424469 1278.1346436,316.8206787 1568.1745605,484.2752075 		"/>
		<polygon style="fill:#C1272D;" points="1938.128418,1351.6922607 1938.128418,1351.6923828 1800.6225586,1351.8450928 
			1633.1793213,1641.8653564 1894.7573242,1748.7988281 1988.4606934,1604.5 2066.5754395,1451.2010498 		"/>
		<polygon style="fill:#C1272D;" points="1073.8580322,1868.4556885 1479.546875,1759.7515869 1515.135376,2040.0930176 
			1351.5012207,2093.2561035 1183.2081299,2129.0327148 		"/>
		<polygon style="fill:#C1272D;" points="518.1346436,1633.1793213 881.8653564,1843.1793213 708.7988892,2066.5754395 
			555.5,1988.4606934 411.2010803,1894.7573242 		"/>
		<polygon style="fill:#C1272D;" points="291.5443726,1073.8580322 400.2483826,1479.546875 119.9069595,1515.135376 
			66.7438049,1351.5012207 30.9673233,1183.2081299 		"/>
		<polygon style="fill:#C1272D;" points="526.8206787,518.1346436 316.8206787,881.8653564 93.4244919,708.7988892 
			171.5393524,555.5 265.2426758,411.2010803 		"/>
	</g>
	<path style="fill:#C1272D;" d="M1614.7801514,1352.0366211c-12.8026123,25.147583-27.3587646,49.3795166-43.5579834,72.5010986
		c-0.0054932,0.0078125-0.0109863,0.015625-0.0163574,0.0231934c-1.4447021,2.0620117-2.9030762,4.114624-4.3737793,6.1588135
		c-0.060791,0.0843506-0.1217041,0.168457-0.182373,0.2526855c-1.4207764,1.9726562-2.8538818,3.9367676-4.2989502,5.8925781
		c-0.0938721,0.1269531-0.1877441,0.2540283-0.2817383,0.3807373c-1.4228516,1.9227295-2.8571777,3.836792-4.3032227,5.7429199
		c-0.1044922,0.1376953-0.2088623,0.2755127-0.3133545,0.4130859c-1.4522705,1.9108887-2.9161377,3.8132324-4.3916016,5.7072754
		c-0.0906982,0.1164551-0.1810303,0.2331543-0.2718506,0.3494873c-1.5140381,1.9406738-3.0397949,3.8721924-4.578125,5.7947998
		c-0.0469971,0.0584717-0.0933838,0.1175537-0.1402588,0.1760254c-12.8149414,16.003418-26.4644775,31.3764648-40.9089355,46.043457
		c-0.1053467,0.1068115-0.2114258,0.2126465-0.3167725,0.3193359c-1.6607666,1.68396-3.331665,3.3586426-5.0131836,5.0236816
		c-0.2333984,0.2310791-0.4682617,0.4604492-0.7019043,0.69104c-1.5610352,1.5406494-3.130249,3.0738525-4.7091064,4.5981445
		c-0.3115234,0.3007812-0.6246338,0.6002197-0.9368896,0.9003906c-1.5112305,1.4527588-3.0299072,2.8985596-4.557373,4.3363037
		c-0.3603516,0.3392334-0.7216797,0.6773682-1.0830078,1.0157471c-1.4910889,1.3964844-2.989502,2.7858887-4.4956055,4.1678467
		c-0.3900146,0.3577881-0.7803955,0.71521-1.1712646,1.0721436c-1.4898682,1.3597412-2.9875488,2.7119141-4.4921875,4.057373
		c-0.4053955,0.3626709-0.8104248,0.7255859-1.217041,1.0871582c-1.5125732,1.3452148-3.0333252,2.682251-4.5605469,4.0128174
		c-0.3956299,0.3448486-0.7901611,0.6906738-1.1867676,1.0345459c-1.5638428,1.3552246-3.1365967,2.701416-4.7155762,4.0415039
		c-0.3630371,0.3081055-0.7243652,0.618042-1.0883789,0.925293c-1.6561279,1.3988037-3.3221436,2.7875977-4.9949951,4.1693115
		c-0.2878418,0.237793-0.5737305,0.4780273-0.8623047,0.715332c-1.8431396,1.5168457-3.6965332,3.0228271-5.5595703,4.5186768
		c-0.1169434,0.0939941-0.2327881,0.189209-0.3497314,0.282959c-8.057373,6.4598389-16.2990723,12.7241211-24.7203369,18.7832031
		c-0.2661133,0.1914062-0.5349121,0.3796387-0.8012695,0.5709229c-1.7929688,1.2854004-3.592041,2.5635986-5.401123,3.8304443
		c-0.4829102,0.3381348-0.9697266,0.6717529-1.4536133,1.008667c-1.6002197,1.1135254-3.2039795,2.2225342-4.8166504,3.3214111
		c-0.6022949,0.4104004-1.208252,0.8161621-1.8122559,1.2246094c-1.5026855,1.0157471-3.0083008,2.02771-4.5217285,3.0307617
		c-0.6800537,0.4509277-1.3634033,0.8978271-2.0456543,1.3459473c-1.4483643,0.9512939-2.8997803,1.8985596-4.357666,2.8382568
		c-0.730957,0.4710693-1.4643555,0.9390869-2.1977539,1.4071045c-1.4226074,0.907959-2.848877,1.8110352-4.2805176,2.7077637
		c-0.7635498,0.4781494-1.5285645,0.9545898-2.2946777,1.4295654c-1.4111328,0.875-2.8265381,1.7440186-4.2462158,2.6079102
		c-0.7889404,0.4801025-1.5784912,0.9593506-2.3699951,1.4359131c-1.4146729,0.8519287-2.8345947,1.6970215-4.2578125,2.5378418
		c-0.7976074,0.4713135-1.5949707,0.9429932-2.3952637,1.4106445c-1.4321289,0.8372803-2.8706055,1.6665039-4.3112793,2.4926758
		c-0.7978516,0.4575195-1.5942383,0.916626-2.3945312,1.3706055c-1.4678955,0.8326416-2.942749,1.6557617-4.4191895,2.4769287
		c-0.7780762,0.4326172-1.553833,0.8682861-2.3342285,1.2976074c-1.5400391,0.8474121-3.0878906,1.6838379-4.6373291,2.5184326
		c-0.7224121,0.3892822-1.4417725,0.7828369-2.1661377,1.1691895c-1.6883545,0.9007568-3.3857422,1.7888184-5.085083,2.6745605
		c-0.5924072,0.3085938-1.1809082,0.6224365-1.7746582,0.9293213c-2.130127,1.1008301-4.2696533,2.1887207-6.416748,3.2658691
		c-0.1657715,0.0831299-0.3299561,0.1687012-0.4957275,0.2518311c-2.3587646,1.180542-4.7277832,2.3466797-7.1069336,3.4981689
		c-0.1922607,0.0928955-0.3864746,0.1831055-0.5789795,0.2758789c-2.1362305,1.03125-4.2797852,2.052124-6.432251,3.0595703
		c-0.6925049,0.3243408-1.390625,0.6403809-2.0849609,0.9620361c-1.6568604,0.7678223-3.3143311,1.5341797-4.9807129,2.2877197
		c-0.8642578,0.3908691-1.7341309,0.7735596-2.6009521,1.1606445c-1.5061035,0.6726074-3.0124512,1.3446045-4.526123,2.0058594
		c-0.9499512,0.4146729-1.9047852,0.8220215-2.8575439,1.2321777c-1.4394531,0.6196289-2.8792725,1.2382812-4.3253174,1.8474121
		c-1.0058594,0.4237061-2.0159912,0.8410645-3.0252686,1.2595215c-1.4019775,0.581665-2.8048096,1.161377-4.2131348,1.7330322
		c-1.0445557,0.4240723-2.0922852,0.8426514-3.1402588,1.2612305c-1.385376,0.5534668-2.7727051,1.1037598-4.1639404,1.647583
		c-1.0682373,0.4173584-2.1390381,0.8309326-3.2108154,1.2426758c-1.3800049,0.5302734-2.7625732,1.0560303-4.1483154,1.5769043
		c-1.0882568,0.4088135-2.1781006,0.8153076-3.2697754,1.2183838c-1.3833008,0.5106201-2.7698975,1.015625-4.1586914,1.5167236
		c-1.0968018,0.395874-2.1942139,0.7905273-3.2945557,1.1804199c-1.3961182,0.494751-2.7966309,0.9822998-4.1984863,1.4675293
		c-1.0999756,0.3806152-2.199707,0.7617188-3.3033447,1.1365967c-1.4211426,0.4827881-2.84729,0.956543-4.2741699,1.4293213
		c-1.0900879,0.361084-2.1787109,0.7244873-3.2720947,1.079834c-1.4619141,0.4752197-2.9294434,0.9398193-4.3973389,1.4046631
		c-1.0671387,0.3380127-2.1322021,0.6795654-3.2025146,1.0119629c-1.5340576,0.4765625-3.0750732,0.9407959-4.6156006,1.4058838
		c-1.0098877,0.3049316-2.0166016,0.6152344-3.0290527,0.9152832c-1.7105713,0.5068359-3.428833,0.9991455-5.1469727,1.4918213
		c-0.8498535,0.2436523-1.6956787,0.4945068-2.5472412,0.7346191c-2.5734863,0.7259521-5.1546631,1.4375-7.7452393,2.1317139
		c-320.0795898,85.7650146-649.0817871-104.1844482-734.8468628-424.2641602S604.6289062,586.2095947,924.7085571,500.444519
		c2.5903931-0.6940918,5.1813965-1.3684692,7.7728271-2.0264893c0.8589478-0.2181396,1.7183228-0.4241638,2.5772705-0.6383362
		c1.7338257-0.4322815,3.4676514-0.8649597,5.2017822-1.2811279c1.024353-0.2458496,2.0488892-0.4797668,3.0732422-0.7200317
		c1.569519-0.3681335,3.1391602-0.7373962,4.7088013-1.0923767c1.0915527-0.2468872,2.1833496-0.4831238,3.2749634-0.7237244
		c1.5047607-0.331604,3.0092163-0.6633911,4.513916-0.9829712c1.1244507-0.2388611,2.2485352-0.4685364,3.3728027-0.7006531
		c1.4731445-0.3041992,2.9460449-0.6071472,4.4191284-0.8998718c1.1427612-0.2271118,2.2854614-0.4468994,3.4281616-0.6671143
		c1.4550171-0.280426,2.9098511-0.558136,4.3648071-0.8275146c1.151001-0.2130432,2.3018799-0.4205017,3.4528198-0.6266479
		c1.453064-0.2603455,2.906311-0.5162659,4.3591919-0.7655334c1.1442871-0.1963196,2.2885132-0.3888855,3.4327393-0.5783386
		c1.4624634-0.2422485,2.9248047-0.4785156,4.3869629-0.7095947c1.1338501-0.1792297,2.2675171-0.3564148,3.401123-0.5289307
		c1.479187-0.2250977,2.9580688-0.4425354,4.4368896-0.656311c1.1132202-0.1609192,2.2262573-0.3216858,3.3391724-0.4762268
		c1.5087891-0.2094727,3.0170898-0.4093933,4.5255737-0.6071472c1.0814819-0.1417847,2.1629639-0.2853088,3.2441406-0.4210815
		c1.5550537-0.1951904,3.1097412-0.3791809,4.6642456-0.5619507c1.0335693-0.121521,2.0673828-0.2467346,3.100647-0.362793
		c1.6407471-0.1842957,3.2807617-0.3553162,4.9209595-0.5258179c0.9435425-0.098053,1.8876343-0.2016602,2.8308716-0.295105
		c1.8222046-0.1806641,3.6431885-0.3460083,5.4643555-0.5097046c0.760498-0.0683594,1.5214844-0.1435547,2.2818604-0.2089539
		c2.4073486-0.2071228,4.8135986-0.3981018,7.2188721-0.5757141c0.171875-0.0126953,0.3441162-0.0281372,0.5162354-0.040741
		c2.6378174-0.1924438,5.274292-0.3669739,7.9091797-0.5240784c0.2003174-0.0119019,0.4003906-0.0205994,0.6005859-0.0322876
		c2.3839111-0.13974,4.7667236-0.2666626,7.1478271-0.3775635c0.664917-0.0309448,1.3292236-0.0535278,1.9938965-0.0822144
		c1.9160156-0.0828247,3.831665-0.1622009,5.7456055-0.2264709c0.8215332-0.0275269,1.6422119-0.0465393,2.4633789-0.0707092
		c1.7597656-0.0518188,3.519165-0.1012878,5.2770996-0.1374207c0.8868408-0.018219,1.7729492-0.0288696,2.6593018-0.0431213
		c1.6920166-0.0272217,3.383667-0.0517273,5.0739746-0.0645142c0.9208984-0.006897,1.8410645-0.0076599,2.7615967-0.0103455
		c1.6586914-0.0048523,3.3167725-0.0058594,4.9737549,0.0031128c0.9298096,0.0050354,1.8588867,0.0148621,2.7879639,0.0242615
		c1.6525879,0.0166626,3.3043213,0.0386353,4.954834,0.0690308c0.9217529,0.0169983,1.8431396,0.0371094,2.7644043,0.0584106
		c1.6629639,0.0383911,3.3249512,0.083374,4.9859619,0.1356812c0.901001,0.0283813,1.8017578,0.0582275,2.7021484,0.0906372
		c1.6884766,0.060791,3.3754883,0.1298828,5.0617676,0.2049866c0.8688965,0.0386658,1.7376709,0.077301,2.605835,0.1197815
		c1.7336426,0.0847778,3.465332,0.1794739,5.1964111,0.2793274c0.8138428,0.0470276,1.6278076,0.0922852,2.44104,0.1425781
		c1.8173828,0.1123352,3.6324463,0.2362671,5.4468994,0.3651123c0.7210693,0.051239,1.442749,0.0993652,2.1634521,0.1532288
		c1.9526367,0.145813,3.90271,0.3049622,5.8516846,0.4699097c0.5825195,0.0492859,1.1657715,0.0943909,1.7479248,0.1453552
		c2.2139893,0.1938782,4.425293,0.4025269,6.6345215,0.6210022c0.3120117,0.0307922,0.6245117,0.058197,0.9362793,0.0895081
		c10.3236084,1.0370483,20.5939941,2.3416748,30.8027344,3.9077454c0.1651611,0.0252991,0.3297119,0.0526733,0.494751,0.0781555
		c2.3446045,0.3616638,4.6861572,0.7364807,7.0240479,1.1257935c0.3773193,0.0628052,0.7537842,0.1292725,1.1309814,0.1928101
		c2.1320801,0.3591919,4.2618408,0.7276306,6.3883057,1.1096497c0.4705811,0.0846252,0.9403076,0.1727295,1.4107666,0.2584229
		c2.0356445,0.3707886,4.0689697,0.749939,6.0991211,1.1415405c0.5168457,0.0996094,1.0327148,0.20224,1.5491943,0.3032227
		c1.987793,0.388916,3.9733887,0.786377,5.9558105,1.1951599c0.5314941,0.1096497,1.0626221,0.2211304,1.59375,0.3321533
		c1.9754639,0.4130554,3.9484863,0.8352661,5.9185791,1.2679749c0.519043,0.1140442,1.0379639,0.2288513,1.5567627,0.3442688
		c1.9956055,0.4438782,3.9882812,0.8981628,5.9780273,1.3621826c0.4798584,0.111969,0.9598389,0.2234802,1.4394531,0.3366089
		c2.0466309,0.4825745,4.0895996,0.9768066,6.1298828,1.4806519c0.4146729,0.1024475,0.8297119,0.2036133,1.2441406,0.3069763
		c2.1422119,0.5338745,4.2802734,1.0804749,6.4151611,1.6376648c0.3033447,0.0792236,0.6071777,0.1567383,0.9105225,0.2363892
		c2.3078613,0.6062622,4.6115723,1.2262878,6.9106445,1.8596497c0.1264648,0.0348816,0.2532959,0.068634,0.3797607,0.1035461
		c19.8466797,5.4814758,39.3575439,11.97229,58.4606934,19.4265747c0.0780029,0.0304565,0.1556396,0.0614014,0.2336426,0.0917969
		c2.2879639,0.8939819,4.5700684,1.802002,6.8461914,2.7235107c0.1363525,0.0551758,0.2723389,0.1108398,0.4084473,0.1661377
		c2.2264404,0.9033203,4.4470215,1.8197632,6.6618652,2.7493286c0.1567383,0.0657959,0.3134766,0.131897,0.4702148,0.197876
		c2.2099609,0.9298096,4.4141846,1.8726807,6.6125488,2.8285522c0.1387939,0.0603027,0.2775879,0.1206055,0.4163818,0.1810913
		c2.2369385,0.9746704,4.4675293,1.9626465,6.6920166,2.9641724c0.0872803,0.0393677,0.1749268,0.0783691,0.2623291,0.1177979
		c28.0537109,12.6473389,55.0976562,27.4235229,80.8813477,44.1832886l-0.0040283-0.0151367l280.1571045-161.387207
		c-219.1408691-199.9458466-532.4439697-287.4544678-840.2485352-204.9785004
		C366.9433594,339.3143921,82.0191269,832.817627,210.6667633,1312.9371338S832.817627,2077.980957,1312.9371338,1949.333252
		c307.8045654-82.4759521,535.3786621-314.9123535,625.1873779-597.6408691l-323.3404541,0.3592529L1614.7801514,1352.0366211z"/>
</g>
<path style="fill:#C1272D;" d="M2226.9448242,861.5767822l-35.878418-27.5163574h-5.8288574
	c-25.5803223,16.126709-53.3850098,27.5163574-83.4140625,34.1895142l-6.6730957,48.380249l-50.8930664,2.5126953
	l-51.7167969-2.5126953h-6.6730957v139.3113403h669.8261719v-292.793457L2345.3928223,30.7714233h-444.6079102
	l-436.6936035,1049.6740723c-0.0554199,102.9219971-41.8005371,200.526001-112.9943848,271.6032715l-0.0012207,0.0026855
	h263.6766357c0.0025635-0.0048828,0.005249-0.0098877,0.0076904-0.0148926l0.0041504,0.0148926l75.8320312-0.0842285
	l295.2512207-707.267395V343.5849609l6.6730957-48.380249l50.8929443-2.5126953l51.7169189,2.5126953l6.6730957,48.380249
	c30.5644531,6.6731567,59.4814453,18.6394653,86.7507324,35.8577881l38.3706055-29.1846313l38.3703613,34.1895142
	l34.1896973,37.5466919l-29.1848145,39.1943359c16.6828613,26.6925659,28.6286621,55.6094971,35.857666,86.7507935
	l48.3803711,6.6730957l2.5126953,50.8930054l-2.5126953,51.7167969l-48.3803711,6.6730957
	c-6.6728516,30.5852051-18.6394043,59.5021362-35.857666,86.7507935l29.1848145,38.3704834l-34.1896973,38.3705444
	L2226.9448242,861.5767822z"/>
<path style="fill:#C1272D;" d="M2919.9238281,1055.9411621h-264.2302246V19.7369156h615.4858398
	c52.15625,0,94.9890137,20.7560158,128.5375977,62.2680511c27.6748047,34.5933609,41.5119629,75.0409927,41.5119629,121.3428726
	V499.510376c0,57.4782104-19.6916504,104.3123169-59.074707,140.5022583
	c-17.0305176,15.4536743-35.6577148,26.8862305-55.8815918,34.3371582l179.609375,381.5913696h-304.1455078
	l-184.4191895-454.2473145c3.7255859,0,7.1948242,0,10.3879395,0c21.2883301,0,42.0441895-2.6610107,62.2680664-7.9830933
	l22.3525391,30.3357544l35.9140625-17.5628052l33.5290527-20.7560425l-13.5615234-35.1255493
	c18.607666-16.4786377,33.7854004-35.3818359,45.4938965-56.6700439l36.722168,5.5783081l13.5810547-37.5106201
	l8.7714844-38.3188171l-34.3173828-15.966156c0.5124512-4.789856,0.7885742-9.3234558,0.7885742-13.5811157
	c0-19.671875-2.9370117-39.1072388-8.7717285-58.2666321l30.3356934-22.3526306l-17.5627441-35.9337463l-20.7558594-33.5289459
	l-35.1257324,13.5811005c-16.5180664-18.6271973-35.4013672-33.8049164-56.6896973-45.513443l5.5981445-36.7221832
	l-37.5305176-13.5613861l-38.3188477-8.7912445l-15.157959,34.3371124
	c-4.8095703-0.532196-9.3234863-0.8081665-13.5810547-0.8081665c-20.223877,0-39.6591797,2.9369965-58.2666016,8.7912598
	l-22.3527832-30.3357239l-35.9335938,17.5627899L2919.9238281,1055.9411621z"/>
<path style="fill:#C1272D;" d="M3888.7424316,834.0591431h369.5344238l101.7651367,221.882019h-854.1599121V120.8586426
	l62.550293-90.0871811h791.6096191l-101.7651367,221.8813782h-369.5344238
	c-27.8046875,0-57.0100098,8.8975067-87.5744629,26.6925201c-26.1569824,15.5706177-39.5031738,31.6973267-40.0388184,48.380127
	v55.0532837c0,21.1315613,18.9072266,40.3270874,56.7216797,57.5660095
	c26.1157227,11.677948,49.7600098,17.5066528,70.8916016,17.5066528h215.208252l113.4433594,15.8589783l4.1806641,69.2233582
	l-4.1806641,70.0678101l-113.4433594,15.8589478h-215.208252c-27.8046875,0-57.0100098,8.897522-87.5744629,26.6925049
	c-26.1569824,15.5706177-39.5031738,31.6973267-40.0388184,48.380188v55.0532837
	c0,21.1315308,18.9072266,40.3270874,56.7216797,57.5453491
	C3844.5432129,828.2304688,3868.1669922,834.0591431,3888.7424316,834.0591431z"/>
</svg>
